<mxfile host="65bd71144e">
    <diagram id="-UISWoL7S0xDq0Hws7n_" name="Page-1">
        <mxGraphModel dx="816" dy="306" grid="1" gridSize="10" guides="1" tooltips="1" connect="1" arrows="1" fold="1" page="1" pageScale="1" pageWidth="850" pageHeight="1100" math="0" shadow="0">
            <root>
                <mxCell id="0"/>
                <mxCell id="1" parent="0"/>
                <mxCell id="2" value="" style="rounded=0;whiteSpace=wrap;html=1;" parent="1" vertex="1">
                    <mxGeometry x="40" y="40" width="430" height="940" as="geometry"/>
                </mxCell>
                <mxCell id="25" value="" style="rounded=0;whiteSpace=wrap;html=1;" parent="1" vertex="1">
                    <mxGeometry x="53" y="290" width="397" height="200" as="geometry"/>
                </mxCell>
                <mxCell id="3" value="" style="rounded=0;whiteSpace=wrap;html=1;" parent="1" vertex="1">
                    <mxGeometry x="40" y="40" width="420" height="40" as="geometry"/>
                </mxCell>
                <mxCell id="4" value="logo" style="rounded=0;whiteSpace=wrap;html=1;" parent="1" vertex="1">
                    <mxGeometry x="50" y="45" width="60" height="30" as="geometry"/>
                </mxCell>
                <mxCell id="5" value="nav" style="rounded=0;whiteSpace=wrap;html=1;" parent="1" vertex="1">
                    <mxGeometry x="140" y="45" width="230" height="30" as="geometry"/>
                </mxCell>
                <mxCell id="6" value="login" style="rounded=0;whiteSpace=wrap;html=1;" parent="1" vertex="1">
                    <mxGeometry x="380" y="45" width="70" height="30" as="geometry"/>
                </mxCell>
                <mxCell id="7" value="Img6" style="rounded=0;whiteSpace=wrap;html=1;" parent="1" vertex="1">
                    <mxGeometry x="186" y="400" width="120" height="80" as="geometry"/>
                </mxCell>
                <mxCell id="8" value="Img5" style="rounded=0;whiteSpace=wrap;html=1;" parent="1" vertex="1">
                    <mxGeometry x="318" y="423.5" width="115" height="56.5" as="geometry"/>
                </mxCell>
                <mxCell id="9" value="Img3" style="rounded=0;whiteSpace=wrap;html=1;" parent="1" vertex="1">
                    <mxGeometry x="70" y="346.5" width="100" height="77" as="geometry"/>
                </mxCell>
                <mxCell id="10" value="Img2" style="rounded=0;whiteSpace=wrap;html=1;" parent="1" vertex="1">
                    <mxGeometry x="181" y="290" width="119" height="100" as="geometry"/>
                </mxCell>
                <mxCell id="11" value="Img4" style="rounded=0;whiteSpace=wrap;html=1;" parent="1" vertex="1">
                    <mxGeometry x="314" y="290" width="120" height="120" as="geometry"/>
                </mxCell>
                <mxCell id="12" value="Img1" style="rounded=0;whiteSpace=wrap;html=1;" parent="1" vertex="1">
                    <mxGeometry x="70" y="290" width="100" height="50" as="geometry"/>
                </mxCell>
                <mxCell id="13" value="footer" style="rounded=0;whiteSpace=wrap;html=1;" parent="1" vertex="1">
                    <mxGeometry x="43" y="920" width="420" height="50" as="geometry"/>
                </mxCell>
                <mxCell id="14" value="" style="rounded=0;whiteSpace=wrap;html=1;" parent="1" vertex="1">
                    <mxGeometry x="53" y="92" width="400" height="123" as="geometry"/>
                </mxCell>
                <mxCell id="18" value="" style="rounded=0;whiteSpace=wrap;html=1;" parent="1" vertex="1">
                    <mxGeometry x="186" y="163" width="110" height="30" as="geometry"/>
                </mxCell>
                <mxCell id="19" value="Input" style="text;html=1;strokeColor=none;fillColor=none;align=center;verticalAlign=middle;whiteSpace=wrap;rounded=0;" parent="1" vertex="1">
                    <mxGeometry x="200" y="163" width="60" height="30" as="geometry"/>
                </mxCell>
                <mxCell id="20" value="Image Background" style="text;html=1;strokeColor=none;fillColor=none;align=center;verticalAlign=middle;whiteSpace=wrap;rounded=0;" parent="1" vertex="1">
                    <mxGeometry x="60" y="95" width="120" height="30" as="geometry"/>
                </mxCell>
                <mxCell id="21" value="" style="whiteSpace=wrap;html=1;aspect=fixed;" parent="1" vertex="1">
                    <mxGeometry x="310" y="164" width="28" height="28" as="geometry"/>
                </mxCell>
                <mxCell id="22" value="" style="ellipse;whiteSpace=wrap;html=1;aspect=fixed;" parent="1" vertex="1">
                    <mxGeometry x="314" y="168" width="20" height="20" as="geometry"/>
                </mxCell>
                <mxCell id="23" value="" style="rounded=0;whiteSpace=wrap;html=1;" parent="1" vertex="1">
                    <mxGeometry x="53" y="220" width="401" height="60" as="geometry"/>
                </mxCell>
                <mxCell id="24" value="Text" style="text;html=1;strokeColor=none;fillColor=none;align=center;verticalAlign=middle;whiteSpace=wrap;rounded=0;" parent="1" vertex="1">
                    <mxGeometry x="200" y="230" width="60" height="30" as="geometry"/>
                </mxCell>
                <mxCell id="27" value="" style="rounded=0;whiteSpace=wrap;html=1;" parent="1" vertex="1">
                    <mxGeometry x="52" y="500" width="400" height="180" as="geometry"/>
                </mxCell>
                <mxCell id="28" value="" style="rounded=0;whiteSpace=wrap;html=1;" parent="1" vertex="1">
                    <mxGeometry x="45" y="845" width="420" height="60" as="geometry"/>
                </mxCell>
                <mxCell id="29" value="NewsLetter" style="text;html=1;strokeColor=none;fillColor=none;align=center;verticalAlign=middle;whiteSpace=wrap;rounded=0;" parent="1" vertex="1">
                    <mxGeometry x="70" y="840" width="60" height="30" as="geometry"/>
                </mxCell>
                <mxCell id="30" value="" style="rounded=0;whiteSpace=wrap;html=1;" parent="1" vertex="1">
                    <mxGeometry x="52" y="690" width="398" height="60" as="geometry"/>
                </mxCell>
                <mxCell id="31" value="Pourquoi voyager avec FantasiaFly" style="text;html=1;strokeColor=none;fillColor=none;align=center;verticalAlign=middle;whiteSpace=wrap;rounded=0;" parent="1" vertex="1">
                    <mxGeometry x="53" y="690" width="300" height="30" as="geometry"/>
                </mxCell>
                <mxCell id="32" value="" style="rounded=0;whiteSpace=wrap;html=1;" parent="1" vertex="1">
                    <mxGeometry x="50" y="760" width="400" height="70" as="geometry"/>
                </mxCell>
                <mxCell id="33" value="Questions frÃ©quentes....." style="text;html=1;strokeColor=none;fillColor=none;align=center;verticalAlign=middle;whiteSpace=wrap;rounded=0;" parent="1" vertex="1">
                    <mxGeometry x="50" y="760" width="280" height="30" as="geometry"/>
                </mxCell>
                <mxCell id="35" value="" style="rounded=1;whiteSpace=wrap;html=1;" parent="1" vertex="1">
                    <mxGeometry x="130" y="860" width="160" height="30" as="geometry"/>
                </mxCell>
                <mxCell id="36" value="Input" style="text;html=1;strokeColor=none;fillColor=none;align=center;verticalAlign=middle;whiteSpace=wrap;rounded=0;" parent="1" vertex="1">
                    <mxGeometry x="173" y="860" width="60" height="30" as="geometry"/>
                </mxCell>
                <mxCell id="37" value="" style="rounded=1;whiteSpace=wrap;html=1;" parent="1" vertex="1">
                    <mxGeometry x="305" y="865" width="55" height="20" as="geometry"/>
                </mxCell>
                <mxCell id="38" value="Bouton" style="text;html=1;strokeColor=none;fillColor=none;align=center;verticalAlign=middle;whiteSpace=wrap;rounded=0;" parent="1" vertex="1">
                    <mxGeometry x="302.5" y="860" width="60" height="30" as="geometry"/>
                </mxCell>
                <mxCell id="39" value="setion2:&amp;nbsp;&lt;br&gt;&lt;span data-metadata=&quot;&lt;!--(figmeta)eyJmaWxlS2V5IjoiVVBid014dVNxUkZRQlBRbFppSklMdSIsInBhc3RlSUQiOjI4MjMyOTA5MSwiZGF0YVR5cGUiOiJzY2VuZSJ9Cg==(/figmeta)--&gt;&quot;&gt;&lt;/span&gt;&lt;span data-buffer=&quot;&lt;!--(figma)ZmlnLWtpd2kwAAAAr0YAALW9e5xkSVXgH3FvZj26+jHvFzPD+yEizovhISJZmbeqsjtfkzezembUSbIqb3UlnZVZ5s3q6WZdFxERERFQERERWUREFhERERFxRERERERERERElmVZlnVdlmVZ9/c9EXEfWd3D+s+PD9MRceLEiRMnTpw4cSLy1h949SiO+2eizoX9SKlrTjarjV7YKbU7iv81mpWgV94oNdaDkKLuhkE7V/YMdtCokPfD6nqjVCNXCDv31AIyRZPphYHQWjC4hnIvPFVt9dpBrVmSlouNZqe6dk8v3Gh2a5Vet7XeLlWk/ZLL9irNhpSXk3I7WGsH4QagI2E5aAQ9wK2N3l3doH0PwJU8sB20agI8WqmurZEeK9eqQaPTW23Te7kUCm/Hc7ydbHbbjCMQzk6EnXZQqtsaype5sh3x5dVGJ2iXyp3qJoOsVWHMioa6K9pBudloBGUGm2Mm4fDKS1cnvF5l+KGXXrVRbgd1+C3VqHVtwLi6dH4YMwF3k1fSRJe2t5lIQHBY6TUbhpAyhdPtakeY0o3JIGrt9uMINOiWOmaUINWbmyarTw/Hg+H4TPtgJDiNZuPeoN2kQjUrpl4oWE15LJUBIFVplrvCIVldLjU2SyE5b73d7LbI+GvtUl3wCqvNZi0oNXrNFkLrVJsNgMVNhtNsk1sQGZMu1qqG7FJQq1VboWSXGXgHuRqdOtIO1ru1UrvXatbuWTdEVuiqUQkqIqAU72gnuFtYOsbElAVwPLynvtoU/TxRbdBZw0CZ0Wr5lIjq8nCj1Ap6p6udjZ5re4WTt2HwyrKshdVas3yK0lWnq5V1o9dXQ6suI72mHlSqJTLXblTXN2r8J9XXhRCwg73eZXsIu10rSac3nC6FG9Veh54pPWSz1K6WVg3/N3Zc5iaT6ZWRB6WbExS3qh7K8MxaeVgpDKshE9qDcrMrdQ+/WD+DmlEmKh+REhJu2lQCfGS9WemaXh9l8depoPRoW2o3T1N4TLjb349OD2e7nej8zCrDzeFd3VI7oFbBp5s3jTjqTbNUvA6dycywuin6abHSPC2iKVxqCoutUrtUq2EmWB31XttJdGEeXAvWBLoYNNZ7lRLCKpnOl6TMcutKYVkKa1VD9YjJN2uVQGZ1pcPCC+5tmmEebbWDSrCGAlZ6rXazHISiyseYoaAm9ccTVe+FVcfjiRRU79Y61ZYBXlYvNbos2GqjZSbi8o3g7pLV1SvKG8Fm22SvbNHMga9qMmybFX0Szq5p1brS/bWlNnJPhnmdLSWyuD7s1uvw0jvZbTDPhsANRl0fEraCoLzRW+2uMskAbjTagGXDmjXbJWOlblodReNBnTUt7KBBvc4GM7EulhXb364be64rpfapQEh7bpCiur4sVNbhKuaSYqHcrDXTUtGov2mzEGJpTM4sbVpUmiwdyku2SVJcFkVEeckeCZtrnZ6hQWllo9RGrV3J2PGgHdj1eyy4u4yc7MiPb5jZPhGWOt3UxFxmeiFzea2LqJphtSNdXNHqD8dOe5fCJvoNUKFRlSrTQm/CKhCdgiQ18sC2kRUQmiq2CJifwkBySl+o1q2Yi9jXk1UyC5ssIzGni9U9ttxwuz+KrPTZM9tBp2wEv1aVcWr01fTWsXrrBzs70bbjuFDFMLXZMUssICpVpd1sZUW91sRMMpPsIKu1rjDorZbKp+ZBvqzfstkNFppoVBXlAKy6LSw0qa41T5sMLHQsDyEaUeuVSy3RzEJWYkG1y2YHKQrRSrQ9mfZnw8mYNsk+Qc/ML3Ilrxlu9VSQaZtXi/qy8XSmwz1KSRto9zYCN/O6cbC3FU274+Eshm67JENVrerdQS0ko+GavVQwvfJkHM+m2QwvMvPAldSbIel6SbZODz6c2P2wzK5PprAGxUrPtii6gsFeCGfTydmoNBqeGdMgJabYUJhYMhrL67KeRS7399HIZDwM16iGTu2lZxe0yEUG4dticFe3WmN7xtABLDidEhNmHZMi4kP5MKApaCG/6yxm+0rvVspLufJtlJdz5dspH8mV76C8kis/ifLRXPlOysfK1XY53/txO9qTk6FIpo6/0QaqVoPNQEagk4F7q5PJKOqPm/tRoiCFbsOuVMRIM9kkyeuwu4ptNnnvbrOAjb4a4W9MpsPnTMaz/ojmzjLm5hZdNlLwTnbZ3teqhsOs9WY0nQ1ZegJrtqjKNV1tdjrNOjmvPjmIo/LBNJ5MkQ/bQgnbR4Uqt5shK63aJq+DewJZeqgeJQ/vz3TVKjEUbGEZFadcwNKTFEnK1Rq5hbpYVGmyyBTjU5NbSufPFJc3WeyTaX04nQoD6Soys06qTQYLhGVkR+uICnuVfrxr7YlXZhcGpDIF18bm2PVQaDXWAamTrUBSHW5K4rUq4iH7wfn9yXR2eA35eEOYdDY/t1BUAsAXMv3rBJAuWa/WvzA5mK1PhwNLpGCXVU7iGYOeXWV+1qbVn82i6ZgqsKots0Kw0cZWazOfB7NJO4qHz4F0KiLDjpFMyodOc54060wPxttO/bxKNRQ/SGgqXG52UzI6nF0YRWHkxs7UtcOms48djgAkuox2WV3hNIKr0SjLxuJ3gnqLDdb4+YWEDMKcRakkL9pvyOpkt8Bw9LfP2mlMx7SBgb4X6RoONBslbqvJW2yj13R3kXStSL1VlExMDHnfNChPDmBo6totPFg7xO4mxy91O7JzFXKkiobUyYN4Nty5QPFBqbRKZXzPzcAeSnxbXg06p61jgJSgE9pZNAYXIKeSsHpv0Os0sTJGQHMAlI5JrtZbuPeUpAYcK43WJB7K5LKfAHKMq9IqYu/ag5BBOz0V28xewwGp1AKsXGqr8yJy0wd2Qu3wGDQoY5Ys3dpJXk6mDlNg/S45TFPW3baZuFU2ZFK/XGsaj7WAR99LvHLKxW4LfzbomWNFr91tdKrmILXAKqtUxbsxCrCYb9bDgRecpSr8Tvs5di7j3IFNMF2q0hos9YQe+xVlXW9yssdfJe/ZvK3wabUhfhn5gq3AwxC0oi0Zd34BLFxn4y0vumEvVfAxSZepOxXckzQ7QnGzaU9kK+Tt4DbMBB9NyyxDysdsF4k2HbdFzpCb0vpEZ9of23m2I7yBXZizQ6fHtsF+LAICTbG8mXfTRK8RPCD17HFmrd1Mjw9+DpRsH4UczG4UxRwk3SkWWt1ww8IcscUMktBaykCW1HIGSCkdkWO4hTlKKxkkoXQ0A1lKiCkBpJSOW0aZRJASYifmgAm9y+agluTlc7CU6hWmJwd1RK/MwxKaV+WBluTVeVBK8RpsXrWM1pr5uRaHkghMqYEpNOv0Os4OTVzMDHJ90I9Z1nbGjxMkKXdXq2UqlJBOCrrayBc9sVfWTaeFrLu0qiB4c5CibTsHW7CmPi0vhq223SeW1lFP1l0KWHaoKeCIzZkFwkq1q2NlHtg5LTbl6CHgBucmwMfC7elkNKoMp9a8wLRbY99kV0DCxmrbttimmViDaIBlm0XUB3e32CCtoS1DQTwtU9LrXbYm7cUEk+iM/KLSownuksl65ckIf0QXpmpZ6TP8423xj9/nn4J1WWh8npK+wD9eGxDYGeB+/vF3+adgKIWzyT4NtiWvnqX0vjPdINiuBGGzP1Wevy1FwTEZgb21oLxcA7/en02H55Ve2LvlFsp675ZbSby9W24j8fduFWBh71YBFvduFeBCqz/FrlfHg4h23pmD4UDdl+NiRXn20EHluf7oIKKNPjAHkBuVt4ZYG/29SGl/p783HF0AX8ey45MRzmbx9nS4P6PkCy48D/s0OdiLpsPtteGZgylzwR7vDtoKPUUByGjiEyZ4St50M9803O9vswrm2hKwwO0Qq2fKmkiIO5tegsCaaIMMME8By0sIwuTxytB/oxD51uX+foz2Z01YsOaQqkl6ScFrBRwYhXUfQC8tiaNPwFWyRUAMdp3sQo5+K5F7ni0OAvzLeQAfjIzhJzRCZnJSrCqLwKxNHUZ7kBpun46GZ3Znc0jE/2RIKUqVE8Rwew4lo8MRxewsa1F/ZibqH3WL8yhVqnxby6C40XjlVihwX0ZFagZKWnTB0wXCReJYLzbblQbpUmmtLfXLlYaxgkca3boMbQX3XwKIR9moRTTHKjY9LucC0hMcnyW9rFQyR5HLyza9grOYpFeGtnxVe9NEYa4Wi0B6TXjaBMuvLYenJb2OSRb49eWyiVzeEFof7yEbRBBJb3Te1E3NdkP4u1mEQvpQNlaR38MqHXPifvharSTjeER9vS1+xSNDdJb0UZxtpP9Hr+GKkz5mw6aP3bD9Pq5jy99yl00f37Lpt8p5jfQJtbVVKX9bs2XSJ7Y7Jv32lm1/S+tUQ+R0aw27RXobqfB5e7tTk/IdpFJ+Umm1vUl6Z2l1U8pPJhW+n7Jp6Tx1E4ZIn7ZaOy3z8x2kgvd0UsH7ztKpDRnHM8onzTn0u8prZkE9s9wy5VK52xa8VXwMKZexqpJW1iz9gFCi8LNGehvpOuntpBt0K/1VSYX+yQ07HnpbF35qG82Tojf408YxalTxYEibJ1tPfgpp62TrKULnrpOtp95C2j7ZuuUO0rB2si7tOgSpBb/LdirzsileFelpUuHj7vqpusDvadSMP3hvo3uqQ/rd7DzC1/eQhqTfu4nASe9rhR2B90gF/qz2qbaU++3WhqRb7e6qzPt2iDtOOuhYPqJOw5yUdpgmmb8zmwTmSHc3bf1w04772ZunjL6c3Wx32qQj0ttI98IQC67UmFTKE9LbSfdJ7yD9PtInkU5J7ySNSZ9MOiMVOR2QPpX0XBhi+5W6n1TonScVehdIhd5zSIXevyEVet9PKvT+LanQ+wFSoffvSIXec3UY3iYEf1CXNw2Hz5OMkPwhyQjN50tGiP6wZITqCyQjZH9EMkL3hZIRwj8qGaH8IjKG1R+TjFB+sWSE8o9LRii/RDJC+SckI5RfKhmh/DLJCOWXS0Yo/6RkhPJPkTE8/7RkhPIrJCOUf0YyQvmVkhHKPysZofwqyQjln5OMUH61ZITyz0tGKL+GzO1C+RckI5RfKxmh/IuSEcqvk4xQ/veSEcqvl4xQ/iXJCOU3SEYo/7JkhPIbydwhlH9FMkL5TZIRyr8qGaH8ZskI5f8gGaH8FskI5V+TjFB+q2SE8q9LRii/jcyThPJvSEYov10yQvk3JSOU3yEZofxbkhHK75SMUP5tyQjld0lGKP+OZITyu8ncKZR/VzJC+T2SEcq/Jxmh/F7JCOXfl4xQfkAyQvkPJCOU3ycZofyHkhHK7yfzZKH8R5IRyh+QjFD+Y8kI5Q9KRij/iWSE8ockI5T/VDJC+cOSEcp/Jhmh/BEyTxHKfy4ZofxRyQjlv5CMUP6YZITyX0pGKH9cMkL5ryQjlD8hGaH815IRyp8kY0zU30hGKH9KMkL5byUjlD8tGaH8d5IRyp+RjFD+e8kI5c9KRij/g2SE8uf04SgVLtqM7VrdoXTiqnnizNb7+/viLGlvZzrZE/duNuFfb3U02VJab12YRbHytQ2PKc/nfnRXymPx7PDjBv1Z3+AuKn9zOIgmyvMSnPj27nQkSK1+PIvCycF0GxJePMW7w0ERd3C63ZBQDh0C4lBeFu+1NHg2UROll2bCOD5lvNsfTO6PyXq7uC3EHHbxMfFaB9GsPxyRK0SMNxZHBO/1HDGJiNgY+YVZtGeCqbZq8dxwi4MxbCxz6BS52G7dLb/yjvz/2+U23tkUYZBf3poKzTE9UzpimFHetWaSLlPWjVfPUt5EvNmZnA78c8N4uIXgtCqQuKup46oYcwqI1Y5egPY43plM99Sz1eLQzNiLtFoyuc4urvpYWAe03B8D5MRTlSqBXGYhuJd4v0ztorqccv4W5gp1xEJ2JwejQVn4q/fHAODnmumEoxONYXMlliZkju4Y2RpMN6Uv1erYvox0zVRhidXxaG/y7GGZHlqEx5Hxoj5xzijSi7W6glD2meGY45X0fHo4mO3C2ZVz0A3ryS6qq7alJ5xlOfpcbYQihV19rTjFdeatgrIqr3g2uqD2ld4BWhuOEwLMtEAqwzMRnPqcWihZV/r7VUEKzmcucu9BCdpDO2bP758fxp3+GZjQkm2IBNH7ZKWZ6Lrt/Mrt3b4cL6JpDIZOS6ajakWG78WSb56LpgR5o06fuVbv9rQ/MpFfEwjcQgO4mhrBfcz2oYtnRhf2d2P2Db0wSK+XYnYNvbjF+fTs9x1MZCG/UevLLJlNGAAFjpd2GEwqnVdovbzTH422iPGtURGrfX1kF6Wc0tnZ1cl5qLxG6xVK5N7g66OzNFzM8XnqTotFdczBo0Eq3+OjyRm5WjAonUk5GXtzZyeOZlgitaxP7A2TeGLa7vI9StC3vb9W6ysGHNPORYOaYeKNvr6yYgGZnI/aYTpp6TlpeZm0WM5z0mJhzUmruAMveeEsXCyLRTdSaMxJYMnBcxJY/ldI4Mjh0a4M7OBqhn9Ge3Qjx4PyClvEYgexGnD4tvbWndT93QSPA0SREGVKmEWQNYozpglhYFeSvD9kAY0ghcHZs21PsXQWVXHViVN5S9hAeypFyvebBcpCkrp7yPiSSUdfkFIp3oYUpUVM5mQa1XJXm1jIneE0nqVykb5gKF9eWJfJo+Ptyd5enyGs2t0nC0tsKbuCGDRjkAk0WkD/FxPvD84527xwsR1aNCBjZMJopr5QIG6bqgsb2ZTwDRLUSDDpTvZNpz+YhXPuLm0VM4QUDbjenzJtTvZ5Rm18yOiZtJRCI5rdPwHdjRBx7TEfzyFQxT/pOC+2FLKxczuElLSoQqzu0zq8sLc1GTnysSnQL/u9zSdEYiHgEcSRbSSE92gNYbEVMZkJWfTU+Ayeh25AYR8YriaBAqS3Ho1l80NCrq9JnrI+iKM1tGBdnBLGcWFsQjUaR2K4s9Mcjy60Efq5/shg+xWr+dW9vYOZjM7sTZauN0+XgrNnXimOo1l1AJeMH12bDsF5p9baVQSALkCgL0VRaOywyVcHOKiufTvaAeWsrU2Is7RMJYjeokhWRt8XiKC/i7aspRmDmxzsVwf4tso3M0T+vawhK2kKD2g8Btk+GBLF92m1kBRDQ/0DmihqnpSXrOn57kJH/cGqkw4fpH7TdYoi/D8wmohAhF0d/L8wQwZQeTAkHIkDuhs8WH1nN9r7JtyEGCMcGXCcDswkD/6H9NwkZXitKV6A8hZmUthMMfCBM26NuL0ZW4cTZ8xsaYxfB1BZfIp6f3zAnnghjEasy4ilrArDeHUyHTj35hIIxfhgSwKcW+xK0rkbw0LG27yCfgwFnasLqBA1nUkZJmWMJm/H9BF4DjFlsohklqEfEa3FlnnLO7jXp6zqxqYSEeFin7Pj3+jjnhN0FRG3+ulyjjkJsv85h784GuK2Ti/Imu9MQjcW0ATAaV0vYH/3J+No7JbQ4sF4ZyQ30nKxmCe5NIy7SZWRzLJlu5y0r/c5HSSGbzuBWqp6/2BrNIx3ISYdC7udSSfq79Uy9qQT73AnfpWTj5j2RHPDmQw7M0dCqrkT3g+nGBiHLFYM13uOhXlDc2m6m7f9qyizN/RHYW5GkiaWtH3DpLxj5hBwlXCCbplDgPEPsPj+lN3yQE4Mhew0UCRJTwML8f406g/AWIx3J/cja84xqxESHIh5Bn3J0thkU8JRXjaduMIR29iVVs67zNELLnOsIycMs81Wxzty1jOsbio9OLBGn349FHQ2kYpKdG64nTyqSK5lJHxmHn7oMgFNE+L1DIybGgnQU8buS8N2cqhgZ3GNy+XTPXNk1oc6wQ2SAmdhdN7tjowFqVUHTOVwZ8iGj9LTytL8HGu4ifjxE1vOc+gIAbWU3tArLueSmzwt+bTGk1Jyn+dzncQ4EsyCK6bIRQdI8BfsA0hyi46BVZztM1h6cb1YCmy4cEMv6ajlEpzLMXtHLfeE7hmVvoiAHUPaktBotdJLHvldjF5CR3GHREE9bysFGypfQpQZqCxqIrrY6HPYNTI0WKrYKG0SmTeXGIqryrZ9pajD0+Y6wJO0x42JQfDdnaV5JlAIOEFLkALKTKdYLTCSN6MgqLC9bq43CCG3INtr3d7bvAOAZ1uGHLmxDBj4I/HBzg63W1iMofhrhjUW5TZ+/Ux8jRkxR+XH586InTHnM+afYrVi1s1XWUWUmgcz8VHF8FOPiWM68AXFL6G8CMbahCBGaJ5zYbfOxoCX8GlKW/FkdDCLnGeHkdvOj+qftDriWN5cd10qr7rWawSBu2cs1U6X7gnJ6Jo5ucgLn8QU3Mk+yLFSedjwdNX744O9EHvBRMQK797ZCIIRsYWGsgxwbM8cYBWnrrRo+GIel/bFWE7H6ilqOUfJLfQjlporrcS2Vmg40NGMqoMcW2c/QY3MYRhWtSVBn8lm7rewjCDcjy1i2swz+iWFlZtz5PGhZBc2PnEo2Y6IQO7VrErLqzoSLuHazVMC8dyDdD9YW7PP4wpcNTTbkiu691AL2EH2HEMvt1PavqydTxwItz0mm6sgMNOMVTQH7mOBuCYxM5pYD8qeTLatcnfLGF6WCwIHYDRfZpgh3B1Ueqc3Alb0RrVW6TXXeraaW79e8psARshqv8fVSEOvNN1OueDQhhBL4zNIkYAVO0Cu6A3HuOFtY+gp+nbTqXEUpO3BdAiHejCM90f9C2YxrIgDbopG9+G/NTogxuJ62zcFJEkznHOCGjQ4awfaMnXtaNTntLtrGxT2DdA22ItscI0mbqrJ4l5VcJasr1SoH4xmQ+k9mq4No9Fg004FE7TNgkL2KIPOX7p75QkDlINJvS+RN6WWEv1wb5DEYJN4zir71giTKyR2uJha6AVp05t7L7CYdhCMB/tyIkQMkcvKRgobuKf7yeRvcZNuOXmpp/y0MRlsxaglrRhNDt2uaJqBYnFF8iE5qcdVrlYqNfOeC9tpdJkbrwRknwAlr6ps0/rQMkc3MUCh8govvwpTbNQAE4YWI5agtto8bS0QC6rkRMPW3La/ecla2WXopZuXuRFHVcnp0njs9lUsHjGH2QWLfb1brELbLlbNZaZ5fOGljw59bvJ6CbgghbSqWC/dnVaxb96dVS1akmntUpn72KDd4zKt2pXFspyagyNiIBCjfTGwYkrcY6/TUX7Kj66R662V6lXzEO+YKbrL3uOmcDrp/AQLNch4uawWdNCknjx7YwUDuZxJY6fOAFdYQKtUcW8or7QA9yTtKlsyXLnN7+qmNDZXxteUm/UW6m3g1xpWktFcd7HoladnIv3XMPtZLWox6m9FEh/S+xZTjh2v5bSfIdWjvkS0JdgjOh6KQVcFu5JUuoK0W1NespL8S1IgRmPMvpabBSFH3ptNXM5PoKaT13uqMJuE/T1bZDc2BqxplFdsy4w4AEq8wM6YgNeG57EebGmWZmgiBGaLeTObsjsg1CfnIueqTkaDU8ZkEbDAnq+lttrL4W4MCRxPL1QJ4tMkNncWQr1qRmLL5UMHBDzQaCQSNYyaQN1ZbODYNqO/nayrEXXO4kpw7GzXROwKp4eDMxFbCesXY+cR6jFt6TIYDAnOyQAKsyGmdNbf26/Gk6fcydUqpPE9piAKZQYlyNGgJNFwfxtPPikUpCJZwn4lkF8jMm/q9Ea1E6w2S21Z6tq8a5Ol47HhnXXIpVprQ66h5QmZaD05bX4r4n4j5s70DruBlgJUIUqOqUoedZpfxiQlL8SeoCohGsPulDVa7bIXkmpRd5aUNUBz2FYSbNtSUO9Ew2XY3f0BQ+2Oh+c7iYgYtAlHEe0bs/d4LzPHXRGopDZW/6T93X4cqQXlmYwF3rnPtp88ehopP1e0CE+eyVCPoK+kFvSUsZ3RoqQW9NRh3LJHV9FKFPotmmMeZ+h9GQy47/FGmdaZYb3RU8/NA50qqjd5+mfdZvt7xsMoSUxEwhTv0Or/IgssObvRorrVZS0H0TAOJzszt8uGUgUbb9VcT0zGVmKOtV8HtjYcjRKcn6dsXdwE8otAmufsWVVS2W+Suq9ZDjpIQ/2L5g7bFCtzg/29xLki/6samVzCs3qex7rNVWVu2nM97q9F0QlF4uNspqR+wj/kgL3XmzybA2p4wGJEb6aRMWPGpRD6f83OeK4+mYxHQ25+RheSfj+Fu7RLqBGT4qSAPO8jtu/AOWGYitclFakcDPiXE7Bz9dOKN6YV5oSfVfxKUiHefgZ+UwLO8cPBw7JB/W/r2AAHAAWFeJX6kJ0GA7OISc2f5mqEYYF9OAezTAn0z3JQ4UhgH8kdC1t97FOsfkrr39eX5HA1RYXLB1CakIVqg5hKq7+H7aTYslsQgQW8yaYE0mL1Wl9/OdEA469mKvBxrZ4DNQOdX1f/hlzaIB93+v58RaYzP2DBqQ3PaeAntHqlC5jNq+9L9UESXIJ6vpPXc4vIjtB9kOrPJfErxCQG4uNuB6nZVX7KLOof8x2Smfu/kvOQZc1WfwIxlm9jpH+dEItS/3hFfVLby9DyfKNvZFRE0pVoJ1bP9fWL8KdzYOQbq697+sc8N2qRwlu0+r6saG2JzA8bsBOmwCVg9W+5j8K0JCGudhRzGgzGMjHi1b8oiYgRgLENzQB/Yp41jBkXQeIvxOpfPP1iojaEN0vTaPVgyxH69TROFkqwjTHrr+k5EPG3T2n9dWPbEw9gkhTsEPaTBjXZrVVR/b63l+1c7/DoPHdVdHWSt42r7AL9M9P+/q5sBLg2y+qaQyCLeDKFJq9Ql9W1h2EW9dSMtVgaMfjcD7Yepx52CbBt0ElrNlk5cq+kHq8efhHQIncFXmZXU9eoRyR5W7UpxdxF1nXqkfMQi3Ya9yS5uxurx2UlW/09IqEG+x1X6d+S5G3V9xpyoiSv0urxScHW3ec0qeOg6tVa/UcjecIIw/6YaNDe3mRckxATfqSEUv7dXC0O0vnZQZ+zbIbxXFZhilIZsnQjGQcrLI/1g3ksu7mKvPIoz8ujYJXkkQHgH8qDQzwOluC90XRC1fPzVY0D+37Yvl2eqh++RKXTATUjiH5xLRdcxttR59SP5KvL8rb4vHphHpbue89RP6rZ5DFjCfGx+iWLmdqJD4LRZzz2ovUG9YAnjhHlFqd25GkIafXnCbiGfCj/Bafa8zWmXkJMf8f2abhjzTn36zPzIOPHvMtT/+DJLHXZsmsmmJXwsaj+REsNG+RouM0mfKj2xf5scoYIxqA5bnbW8F+RY8ys6D/VSQW3hHM1H9bpLbd6wFd/p8WUCLX3++pjmWIJKMa86+cb1laHg2HW7c8YWMde1wvo6eqVCCLe6A/anVqHOkTxei86fB38I35sb2zc05oNNANZvzD3UmfBZa32P40bgLPGpi3anAV/R/bIZ8llbcXTaZlG9pfTgq38zhj7RARhRVIL+i5inekLoKNpwVY+cwB7GET0ZKyW9bFc0SKU9nD74e0ySS2oItlq3LRxUequmANYpDWBGTP6dk/9bs5faNqxMKwrLwLapuvYHM55aaDqqnzZomzExptxj2+W1Q35skVpWJAxg+ph6qZc0SLcZSGsIvUIdXNasJVtWza/zn2UemhWstXhDi5O5vk8Jiva+nttAwsSjMfmARbnuyPjY8Xq01p/q8vbml4mmLKLzN52CGQRd6Tf9WiyF8m14De0vj0PsDhnbM8JULDumAdZvF15ucA6Ry0n+7VoB7OaSR0Rv0znEdoi6EMYL88wViez2WTvElR+8jDOpQj9VIaU1QxlS91H2VnK6NxPH8bpTPAlqM1QXmFiGjjdrN6YTYJRI36z0n5Gjg6lrUPx+ed5WxPxahjfhvFQgP2Cg1luU/BrHViGmAJ/0QHNmFLo6xyUyeW8gKLLknmDA9KVVVqG/csOZrtKwW90YOkqBf6KA5quUuibHDQ082vB2N+8UH7V22WLsy5EKpOZulndeCm4VY1WLL/uFCOjVhV7gCvYymebsoyLHQIezubLFmVkQK3+QPYaUPbyZYtCh4DKzASmxyxStabOG+DJA/tr2Q11wZRtbYXLblPcSNl2BOngz20Vxtx4P1nFR20FkRX8wZPqL2zRujCUP2bLLbZD/IRw+BxpdVL94xzY9F8lFhTD0udtVZ5xW1VR/9FV7Q5HA9d0fTqRX3N9wdY4tswUAv1Pc1CrBIC/aMGGjKEfRqMdhPMlC082fJqomvpxDmsA27iz0zi6V6b+PJP+ExZsfr7bUH9gS45nN1P09D5vbzhm0JF6d0H9oWzySeH9cy0MF+gIR5uZaqm/4p49HKPb6/091lJ/KgvsEx4K5G6F5bhtvPwfkwVpL2hDuapIK16cVazSz5nMzmH6flxnpIwv8RmtfjYH69CK2+ZX5UCV7OL55zTBR8ZnsO7Gs8ywWngL0fRcFJpbGaXVb3IKIcJofBeD3yaakoHkV8gr6rcyXonxyS3z57V6p2axJJe0HapUR/1OrisJQU0OZJbfnces9ynwn7FJv6spJDW5EbxHgkRc65gyuyxTO+rL1eN7cx2E5gFuiJLNSubRrhiZP8tYrWakY/U2X382qzJTgYRMoFG921f/S9ubGuOKv8jTH3JliWTiDdnrnBd7+m8S2UhwARrq5R6Xmiks4MAP5L9nkBojNXEB9SpP/XMGN63ZetmH/0cGpb2FfTWDldE6Jsuwyr7q6f+T1YlLlt53vNJT/zdXxTDVqz31P7x+GpSOMcz6v3l7qAduoziIMVZZP9cnFnDoY01H1X/TBtpFX5yxWFb/k3kxx5ZLvER7uybs9aDVmyxOOFAv8dRHvTGL4ND7uLdp9RWYH0Tcfm6frbHJHeBfqlf56oe8ET4tintuGN1vcD/kc6NjmHOuKh6wRr7OBS8jMBlauhv9HLfFg2jSQoW2WGpEx9SbZXXv7RtyH/TVf0ja0k1MTFGW3BcL6p+8+008Wp7ncehHiJH6gKdelgOX7bc/Fpl2C6xYCYQHW7NplHwa5P2e+klXX+5vc2oqQTBmltRbPKbU1lTH+wez9KL0Jb76eVch2zzXgizE1zjIxuQcVsyo1fs89e+xRqcNPMT2nxW5M+pfQkSyQBCDY4P7e4tmmoPyBUeuHs36AxHFS331AgcLzokMOYnoH3GQFp4Fu8uFejQ+sAb/lb7+UVdpmBftaTCHRoNe4auX+UYJ2pP7E5Mdq096eMcGjLE72BvP1fymraGBVTkcRY+YhAFa9NOyjRnwbxGsdAsceybnDyZ+Z2geNsgs/feL6lssOU5b+5wZE6R/9mKpCfcjjPm0MRFVWlE/7JsHZtjpD2n1vy1KRyCm2Ye1+j85GHEu9lj1AncGivb2CYFJ0NFddfyoPxhK2GOP7hFpdYDx/8/cUsiJrz2ZzCh+0RUTWdDqS9xDm1Y1UyNvBIxU/9lTX06qHEGz4X3VU/81gdsmrf5BjJH9mqe+gn60WE2VoawDmfhvWNlwqg/GB3trWAu0Ub3aV//bGmQqZKhJxWt89YNEzNgJUfQjJmNdmGf0zadVxixyqB7PSrZ6VZab3dmCNBx24iKgRS5HJlrMJJrV27RvTS6/GGrRgxgLWsXYTc3rXIzTdfMQi1bbGzKe2pAElOtJXMlW12eobAclOctuAMJD8mWL0txi+c19jOgx6lGHYRb1bpYVGpb3JvEyH30x1KLfQ4xhQOzffL2H/tQT1RMOgSzis6wQQmIbwGL2Ef1t8yCLh94RBDOTEIsb8zT1xHmIRdsaGQWRyHasvqb1t+fKFmPbvrsWHSAIr27JirZ+sIOaofnxWaJMZg6ZqvgioEXGDpq+J2vMgVbsPGnRIpyzY1lF6lYvkvZg3y/RSxbl17V+kUZyRjdFC6h7iY6NG5N99OBe9QtsInI0CvdYWruIhkl9rcMjZhITsNhSb9C2x44IJw431yUDwV9ziEwU87RNTDc0Nv972J62MxjcQ+Q3uM7k4tU4qdNonCyuFTZCSyU15c/31Lt03z1ZeYGn/iDZJm00WMA1MwObbpMsqvfpMW0JyFE06/4rWv2hifWODr3T+4JW708qxFsRa5cgwOUfJXWZdKsiRUYiCF/U6gMXY5Sy13Bf1uqPDQLKYQzafeovjSz6ODZTLphEju7WTA5gpTFOrEyAbMmfsv56GZp0idxkPk6qv80IyBWVUHgQAp/WZ6MLROrOnEGy7/Vxg89NcD8D2Ztau1NCucj7H7RwKrspUZzd1WhnMsVNJRAoA7xP/2d3lVHDi4jVCz39X/SM6ZbAnkhevc5X/5UJgdHdJhcdrFMYxXGZYBeJcpKHkR/GCYln2bnhhQTBtqKBIfABH6+GmOVuPcIAG9BrCuqlHkrBPMssw57TJLacn/biIXsEx7vkwqDVH0cjGe6rvf42IzGBso1OvSbL4z0FfASJ3LWxOOq9BfVrOaSae8nwVu+coAAx3b+1oN6WQspYnYM9Ria+9z73Y+o30jo50q5eCPEAqPmox2VGUiMwKnGcC/qdeSib4ge0+u0U1I6IKKDLRhlfVyDqmdQIK+ZaK1ZvL6jfSeEdZnncwFTA+KdTaLg92QfznQX992w1bMkXUJHz6uOe+rxn3imE5saIRa+ez2W0e9r4Nk/9uL+FjjEtmwklmBwIk//LO1QD+MsFLnq4SGJ9WpsRnGdjGUgtE/CD/hSzkaCfQt1X1PN8scmTnZ2QGTyIRVKfLKj/5MEC7ZKlJuDPeuqPHDjxqAT8BY9p3xuyMwuipaIeKKg/ho/czTTdf9BDg9jQ8T7f6qk/QQ4cB3G7dnAm1AcK6i89q6dok1FpxvOARkTbYoPaNq6dGcMPFXCpphZqnYQV9TfeYLJNiJ1Iep72Bwvqb6HNhRCTkH++EeMp689ab6cE2XPW5+Hezgrnc0Y1S7PZdLhFWClWHyuofzSjMPNphvKpgvov+Nd7uF3p9zZ+AIclAbnvazxXq/+JRNAnLsViemIeFXcO/iDa6R+MZnMVjPw+XORpHsb/zV6o3uPhyLYvWeV5s+GMAa8oljxmOr3a9DYZYXZE8Pw+m+Y+RVjQewyoX5vIR2iUx8nGTJZfF6gIBQJqWd7lKv7XKnVDecWhO811efoh8F4C9Or202J+t+FyBYcmxV4KLZpvX68126ftk5QFU14tlU85wKIBmAd+S7jEOODGp7dHAm+BSSUCNMRhIrCodWwsawbI/5gWH3ItxUZOjKwALMw1sdDiMG7aZra8YPutuK1s7rzjMblYKM7u8h4Dc282ALJe7oWjrI3sdx8f9LSerwyouQCps0bTsveWyfKsuPWV0fgwNA7VBlRBxB9jUuz7B/g5l8MRY5kaIYvxEU/5m3MQ9ch6NZS3PMhbHX5gp+VTw+tt+TR39s7Ny4DVRsW+WPOTp3rJe7mCfe2WtSpagHsdl7ykl69e56D2GdriPDB5grY0D07fqi1vVsPqak2Uyz4DrJQ68pxpJXk3eDR9xXcs/byydGWY6B0e8/F5HNP7RUgnMiTLx6VpXXYR2qXJXb7abFcASIepCK9wQNcyhV/p4KbHFHqVg9oOUvDV5st4jU5PPo8UtDvVQPq7xoqy3OzK89jcLF1br2YPNa+T15hJ4XqpSQV5g1SlpYeY94rps8obTTF5vniTKRk2OtVmQ7q/OXv3+FBT655gPqx2+JHlI+Q9WtbRoxLdlQ083d2zVfKx3CrJowTUs1TSxQCU5cs+mq4XwQZ0n/LK5OwOTcMc7U9Ae64uoEKIsqpnOGZ76l0FoeeWckeoctpnM+Jsn99LM5KfguSD4gUgCfnhAK6yV8gXkRY3DvQc2c9cRNbhBCBkJGOAmEmvZLb1lusANJWR+hykLqoPqMzI7LsK4cyiVmfRnnFhlOfeA6rVmv1svCOW9yGyzr6YdparD6jMOhMgAYSkpwSPfWHcN16XfRf7eTA4MWPDG8yYmVd/RtCWMzS79pc9VThHPMQUvuKp4t5BzF4tpX/y1IIl3UnRPT2TfC0an+GaARtrETYTCh6e+wxflI0gq62nJNkwJngpFWEuhqlZB2r1GFSvkg9qpHEQkZp9LdmxH8DTDi8fFNHJLy7m5O8QLUEXJRFyEFH3mJWPCude5rSjHeUVx8jIbgawj0sCr6yD50z2tobRWt9+KKBhxetv55s30obfQKT55/7F8qXxVCEz1ipvrLX8rKhdrbCf9ELzhwp6sAHz1cZG0K5iXaq1mrUptsKf6yF7YqS8QjIEtxif55tdcNMU2BL9UXSmv33B7e6dKHulUpijWRHhLFshj+3wiS0h6/7I0oLw4deJhX0zR655VdoWZzKpz/fVQl5Ai/tTefnGGcrQigmyqaU8l8tzvFiw50twxuaxXTNYt4VXafsLHFtC2ecad4QB+dGa+YiWETuJTn4yhojZDhrloCe/4wIw37p1iFH0meUqJw9TXNF66A578ntIB32hr71qDjxPBBoz4elFvpJTMHL7JsgdwVSePBhmWRhvQ8EvPqV8zV341dZdC+TojKNhP5PqvreqzO/pSLUMuxdUUCX70wqv1GET3AgqaBUo8vXYsGf/folU49F02SKlp24e7t5xm6BwGgZRvvtyLku22yiXOgFZ+yRaNjAKnm2WGay5H9zY/CaRAdTIgFzsuWH1zj9tSjIdBNzSMLUVzWKpLBsrnagwEN+sY6Y1m98KW78Th2+AvTCo4ZiYWuelkyvCqkjKeb/5zrik5OQ1mUoUAT338LJNBtZnaCSeLVk3RCOZDqopq95y6OFErAfi9jRwE90X01W7Wk7/0oibwnyfMkDW374DOUnk+xuCYTp4OQtxuG34KVjOOAv4uhgbtqNB08CoZQl27CMj1s/iLnoGcAkTx0bJvfRkj+2S6dSy+vAe5u5r1GWde1pBWG5XzTfuVLklE67dp9+8cijm1T9Z2iylOAWJdJAWT4ZmfhaM13yXgBZb93Q2DHBpXczzcmjAR8LTVeMYr5xqylt8ckfb3VAgx1ZL5iOGxzl2ySeVjdxOVOX0QdwwyAW7Mab2kX1SWUHjkkp2MxJjjUtE4+RTzw/6XpeJ3ndA5GTNqax4T6a3RtRICGNwR2TRWqhtHRB8sNdsr8fsDtmr8JZE+smbTPlJRNQ4IMQ0pVRYzRqogvFgrXJ0G1lBp8cMtrJezX5r0Lc8jO1JxzsyImvIvAmjEsthEetbVEcuwQIbssRb0nACZ3QG+GZfLQ/mQW9Br+ZBIlGMzFt9VRhM7h+z2eIQpp0V0cEYWUTj7QsZdEHEg5ins6aN0hbVorzGn8aG/+ZOjXp0bqmS7UhSYQem5xkQnrTUmrGqolEGxKGcuBLx6FSACcQzPthd3aYxTv5GUKKaXCG8lDRU8r1zVTOfJNRt82VPPIx5NM9WK1uNp5KvdtLCutftZ8pBUcHdaT77hbdgJoFbrziUfVMzWzR+O2pkK2L1Ll/P/6gwZmJxbOUTVXsgOwOKgIsp5cBQ8RaHWQ8dwNzos2+loLmre9Q2rcjd3PtsVZ0sYIsLeVG8tkgcHQ2QBuLl4YTRbmFPoikbXAkAoryY8rbpDh8d46oy1wz8fWzs5cmYMBNE+qOS4UJ23b7LIQSiDg5BPIXsx/glg6K8mzI2xAizNBFnBuuAqjbxkFNIfpTcoLO7G5y7VSHDEe7tgHKjDM097KGHCvKjarmpp96QactPkhOIfXaxJCGd0SXD+ssXXw8cyTrEN+DWnsjX9pQ4J52tWH7XuC2XerWsj7J+pn2L4Fbcljo2MzJOJG5EcnwetinmTb2+oE6YCXPCfMBTl0HOdd+m95mNpyUcc5GHiRx3p6PquBHdz8EL0BXzpNU7fHXlPMisbmbvKtNZeHa435mIiJHv1Slo9UJpz5wrltU1iNDOeUwzfW1azHTknb6+7hCrVgo5Xq8/hFBNVP1clHp9Eq+/YZ7bEExzYH7IPDw9Nt84Dwf/lHHsbkqVMwRDIpUt86KDsJXb0A8FK/cTXvF63GqrROZhjiqeCu5JfsnGBnGqgU+T+RRihvTdq827e7iJ5L1WeAeJz47awdEg/kGpAFeOKkvqbHRB9vlYFTXLw0BdX+/B6mzAtH107HkH5jd85scHDNarIyV4tJaTrvJ/HaXZuqdX6YqNS9xAiyw2SBrrPVuOBl00uTqArpeCVi+kQH+H8PUpI8RCbDt6n89ZNUG1iFVkeUJMjIMmBCx8MWCftVc53jE3hni63TW5NF7sz5LXzbaicL+8REDnirs2pI0Ni4RQB4lQv5jiV+WltHsSvbTDukUr8zDx3s6xWuTu8Ai3vmeGqKvsb5RXEHxu4o+aHjatBTcCOIbGuHcsnn9gRgVUDttoUeiCsALiQAJiNnZAfo15w1akD2u8pQMzNp0MWjybhDXi8HlWCpccX/ES41uYxzzt5HZYQIkUlzZhR+4E8Zm2++Nz/Viu3SL3YpWtZ59r15Fjm0XomXIlkgVrItq20brVwkJd/kIP2+W2jUw/QWlbb4jWJtt9M54t5eXAIZsnq91+Im5wmKKltGFeF7UxrDRf5CzPHcZZIg7gECDYN+sXquEh22LePkHF3RGnptfrMPEsLfzwcywouXcwPxsi5/rVu5MZVxozV/RiDoEun9iAtLGdzeLElhzWNyPAPFsDVE1M3WTs6gqu2SqGf58z7aw6kJ8VFdM+w8yilUxD27v53S8O9RrOJbrYmezvTXDxtrklEI2EH2xdzhoCQ+HmYYYSqjd1l4wJXCwqPjbnskswIZV5Rmzs/1/PCKSsRTnEjNAFH3Y2WRKTUNyqMneDZyybXtGiNywaZIdxC+nTpWhpWghFkYH46JGEQWQ/I9ClC33Ds7yYNm5ELOsVXcJLYw9iWgah9Iid3cKPcuxXpB83zURfCSh00q0rdTOxvdlVkmoHBJHMbZRGFMbdF862iF/Z0WCDJ7grprPP4EiPo/vTgneRMlREGXxyidoAQWmG8YbFrI4b0f2HhoD2DFLmPitBnySwMRNByzW+UF2sZuBE1Ig5lpLpRR/uNmEvnKMDd3FCJwcumF87qy+xX4i1LZtljbrE86vf2Qu3GswvZGSKXdmcsMKkBaKLkzytmdcBfug3bS/lMGnTNkPcwrgCFazmtDwZi8+N4lR3XBsUjWGUo9GI2HVVIAsphLO5gSzOz2nLDFX58q14rhjMiVGVuA2xWcIg9XqVawUpePNNWQvmYQ+S2TdUEJi8pD3DnMovF9ghE2XF+IYyOUSk5aef2IDYMJZI3PxIPVE6S119DqW6GBxChlvyL3O2zJMvoPZYzZS+vzWvh8lSqHKelS93erHBT62snwzN/u6b6bq4a+HoEoyGKUeOqGMiVv/EgWuOSWP8iYVnmwt3pwm1NZGlJck6WKBRKq9YfcXXi9QRAbOfiiEEiCJgchA4+x1bWceWvU05V2WBMjnsyNkhGpQJ1KABNNmI8CW3ov6MKWX9BxIJNEE9tcq9VlrSXfwBOhWGvIfH9AzPiHMRzU+IwqnnXFGC2xL9eRZLXLZte1Ipyl5s9uwPs5r34DNSH/FVthjUfXppskVH5xgnxm55EOEnRA1L8wi2APNgttBYfdTXK1bEybbJnZUvH9h1tr5pJzlWH/f1Mbqawu2KOm7mLMHZsIaAlXBiDt66xEZH8/vk/OJQEvIVkSwm9fJ9SpnSxOqffX3Fdm6Wvsq55dzcfHzNV1ex7E9Pib4hu6vl09lrnB5CZhsl0uqanElKTFusPu/ra2dMsDNFX/DVdVIMUyl+0VfXp5NSMltHyETdsDPZPoib4w7Iri2HkN10/r/uc/RIhhdmO1rJUK0Ix5/09U3nhpfY1j7t65u3R0OmBzGtqIearqAiL0LQs/vUwy5FWfbKHPVP+frhqcARgzQORpE45LYrTAVU7UTq/ngyviBK1E1Axmsih73E6nAAiy1zeAAhmkNorr+/e9dBNL2QizbPnTcaHUJAXJdyM27+fp5u1brrJiiEizZHAasSs5OL/9ygV/rk9LWPAcOcbCXUn1tQvtRa7uN04j29NULPTeTQWR3WkZ0TfEVGzywSwjBLx/raMonuDm0JJ8HeR2HKZsDb0Z61/fYqDM3lZADcFP0ZOZHPoirQ0aq4LEW8UblGWySghtq3WVfIexAC7YDNwPb2TePFGFBXvhrJoaSe3cNhqTIWaCAKDhKdSwNyWIBvTpmtP5xN9jlqQCJ1XqaNyR7nGjt+b87KDOOyrARCnNKCQI1rYRmaxx1nVF5MUKdsFHN1OukPtmGKG8457O15ub+AFjN4naoXMn37ST/qJQVsdmIXWnmwvfRULyqohTqEkYXyHilY6I3Od+VhHkzGOJtOK9S7PW3UOil/g3D7UGgLQ5dcBv/iq4cZDVIv1HpBcqv9GFtlt7Ob5f6uP3JWc9G+A1QFtRRLHDXE97Q1y0m5I6w+Qx1JymWcCToz4GeqFfOuDraL6qjJOo0lEGSKa+nZ+rjtuNW/MELUAE7Ec4tGLqafV9CX5QafLonnF9TlO1DatKdWhnGFoV5F0VhlbFcXmgezWEQx3h5h8YlTyR6JLlxpEFuI3Viaq9AUYmvY0xFb66g7Hoi12j6rXl7Q1xhQO8qBrt1K9CJWLy3o66bRtjWdYfR9BxEa5wLsi+p608/qFDXcxT0nirAGw3boN5i6gDASdwMit7d56iH7coC4MN4uMY8YI9BuTL9JwS1rZM5Y8rnpm/BzZxfkMWnVXorWYIkRPHR7NNzfkh+Opca9HZ3h31h9qaAfDndI0lmQ2E7/TxXUI/C/2tE+Jh0hle1cQuyRwSXQ7fnLTcYhe3S4Jr2190TjLCzFzmm0hcXqFQVdkC/OluQJf65rjrdnGDhTlXxuDZKV4c5OefdAIkQrGSkshdbWn1xQ3sB+c69BNYsGH8O4zFWhVLB5p9lFW6oySJYRKsnwF7aFelwyPydGMJ1d9ERAdLG4ReBTFA1JbQxZeNPt3Qt0oZf2L4YtXwp5nQHJTB7ZvzR8RcaXLAxvYcwQkhFC0m4HspgZo5NDrF5Z0L4UV6U/QStsSa5lemjMUyjuXwq60E7eGxudVJ7744eVHonZ4FTyV8R1ilqR5egRRyO/YWMzeppUGjqvLuBZ9u0WLtgGqFZWuRQPSrJZqrVasyRbqg478mcIyXmlWrVkrvXMtSkZ+exkOwjd31sv1s2l70L+wcKifdAkDxUoLck9XfLGYbna2ISiYB1JWGlH9vifsbT0zVlKObF9F/N9L8z1vZjveynpsDS2F3xcmT3IY4IV5e0w5a7EwYe7nH4sFxMF4yBb+LNUMTq/P8VKs7Qt6I3sJXvuCYB6c4GN2D3ltZAHuOLaYWWHYrEt6C0FtSwdy+gt5FVE+4OUbhrVV1fKq7/0mtv9aWxblL+LK3/g1L4xs/eE5uq9ZV6j+ZWq6Au5QnBXt1ST+Sw2mh35G+Pmo4ALXPyHvQ43/BQW00KPe/IEZWm9HaCCbVNBeTlfziMesX8gbsVM0VF6ITlmJ6+6Jtwcp1XD/m3kE/BrPg7YqzWbp8xLhssagfvM7uVVuGh3OxuCeUUmEZQ8SgupeN5QUPK7DwcuTc8cyMZrLgpSpa8nM2Pi3syyvc8FJ1sY4ODCGXis3lTIHtOtJfNGayKJ+MWcdWip+/Ga6IrkUyoym7iahozcp+gBAKPcrwULJuc1/nV4LEnTMDJv82k9FAupx9Y24qHNPbNJ8YXIpvTDDZlmyGa7fkeO8QwhoBYPWD4JJI4BxM/lcOYGYB54K3WN/PXGkIB+IDpj3s2Y6wZ7F01gYf4Rp7xy6GxkjxX9dbNCC0JFXi8JTtF8+dUUKS2EG/IH5V3JrldXWEJpmuZzmss210tswRH70cu0vOLKiWE4mj2udN+3dPbAfuAyfaV5whTdy8vLatX8O8vLL3qIeYU8LDHPF3LAKzNgekV/lSGLahOLYX3KoK8uI3J8iln/fIvrvh15K6n804F891mxYNpN5gOBDpuC7dnXGv3RJnse5xGnj7huWp5TyA9HVD25nC61O9WyGZ0OEQIdkvUapU0Sv+Q+oV3YkD+8Vdy4jX8XNm7n38WNO/h3aUP+2Nbyxp38e2RDogYyXyvpzfjRtSaX5ZI7hvXByoRkjwvOiQ2BXsZWQHL53MX6FeaR1ZVd+feqetDokl5dk78+eE1FYNdWOvx7XUVGfP1adb1raNxArlxquQE8pM6JjvRGTBfJTWLAbw7q/PtQUQYj+4eFdRSLzMOFq0cw40LnkXfxz6Mqa9L60aXVVWHzMe6JymPb0vPj2jKAb3HbwuPlb2CTfmsZO0T6BCaO5NvCkvnDmE88tSp8fjsGl+SW0AjoVhnMbQK4XQZ3h/sji09aNX9j8c7ViszMk8OWsZRPMSw89bRJntaqljt2wN8RNrtt83XJp1frMp7vJI4jI3xGrbQayLi+q9pomb/B/czVbqdj5FKy75bIrQr/7mEDC7STTF6FvJVhIKuphJkmv9bsdiytda4Bsd1mJjfq4Ahb1bVqUKvYL9afrAXr9n3YKdk1ZCg10eW2/ERJPSvRu4a9Y7yj1GqZiz7b582rpQYmgVyZqGOrFjD/8CDCrzjDUW2sCYHAjXbNzfQ6KitfWLd0Noho2Vw1DEpt87dJT+bfdh3L9P6hrPtuvZEq7SOJDRAOcJQeVanKE/Sm4eExley7649NJPYEaWmX87fZmXiik+stkqJWwueteGDCxW1sadLrk1D9/Of8n9xuniZ5CklC+Knkhbbh6mkdeV9H5hkdvJtVo2SldF51eSMon+Lqlrwnn/MuB0a1faySqFYBpruOk2KSz7VZSGBii0W8i6kaLCUTbvtcTjCOhOU2t8YWumI+iyq542Gr2kj5OgHXJJeToM1GK68QtbK9XtlpB4H0Sv4q5nu1aeFXywhIrxH5WdC1wiDpdZLaPq83nCTCuoEuBJ3sQ4Qs6Y2SOlI3idRwaMiulrjqFrxTtabMVq1eat/VNS3q9rEiOfSsbsbTNNiVaskit9LcXVaxLHtH7R05ucvmbNnDMpP0cDclj6iwBB3s0UG9tYGRlR4ftxaYCPu3YMjsCn886yhom78D/K3VRggbttW3J8vudtFns3tQuDNMDNt3YGyYHPuC7umYHK50kuJ30lLE/V0yPtJnJkeCtmgaWty7lUKYFG6j0EkKt1PoJoU7KGwmhSdRMKoqhTsp3C0Fw+M96RZwr2wmduq+O9tqvkfWr1vaFL9XpjHoOVndh0OwbqxKr37oN3KeHsSDsvzO2nw2U8sZyJxNrQcW4auIJ/N+PJl8VQAcHyb90O2OwOUkKnGr+oSD15C41eEYgF8Wt73lfhCnPPcnF1T2Jxco6ArRT/Ea55F97GGpLNbjEn+pgZJXvuQP9AghWgupzK9UOk37uxTK2mQEIjUAvBLmNf2ZXXY8Kc4dT2Lq3Ztj/L9DB5Th2OWLhAsNYmk67TtCK7o414N4e8bvlL/akZ60UD9mn4xO/CqvaqbUtzXJK7rCRbRwKWdC7iM4uudMjx/GlZxDM7+szGb148zqRfUBlUyt10+ADNPR+yj0NvqEhHI/1EzQE03Yzderd3kXt8gx8AkYCAj7GD/XxSKjpEwDuar4DDjxuL8f73LdoD7NQSJIMRwYijsSzrLIWbUQoC426WfzVfRjZPU5ZDXq2x/4ZnQ7UpU/JeNyh7ioQcfYSN3FiJB6aXzbD+8Jrf0tYOI7vVJLPJBis2FeCTFrlBZkyw5LmwH5xZLUL4VWSVucRCJONX1kLbMNdaIMICjpyDwVN0UdzH0UkLll0w+owAsw3oCeI2jlWSBeNpIfAJxQeuY+nGFKXHvZUgPJMXyJyMPA5wnUlh8kcAY1GymRiR5jDiQ447HEcyHFpg1KbSnfBPWqEnGRoNyDRyALyWmnOmhyprd5uSCSn8PDavZrKQoc/lFGW8zhvF8jOInJyflwU+qF65L82QNdnOGpo8Nj6Y5pJrota3Wvf56kMIjML183jYIvq+Klqdhq7TlS50yRe9kU251J01//7BO95IJtuG9uEu9PHt74Q24XiHYzauxDNNuWVzrFcxd1xY1nQS+k1NfEBJqfnEZJB4xdjthYVW+nvzccyUGaKYQLLs+IHeZoAvlKQRcPYnN6llPNtv0BPmy4PgyFtiWuvcloYCHQlKcJacGON5Re8sgGQLXgJnmLalsaGFFV12LHABtSoE0slbYuVl9neZuGCSDBVl9j+RpU9Y0ExyyHZJNRmqtULpHkXtgEPjMUqHClJR/HNPLSMUMXFK49bNtYPbeofRGOaYSax9u7XAttpjJmg2ME6qt0PXWc/QvRgsiSfx7m/v8D0hQAAO1ZaXRUVbY+91alSEISAgEShmBAGRtSKE5AqgqQFEgzhAZsdXXxZAiIYhhSiUhDRJKqi1TsF2hEURCoMAlpRZohVkI6IGNApMogk6goj05weioCyvS+79ybXH70euv1r7dWr2aty9n1nXP2/vZwhnujKKqwiDj/gjWvqPGLxdZvFwsRlTAua+LzI+bkjZn1O/foQVmjpz85bdijw/NEkmgplFainUgVHRUlodamKgknbJaGaVYhrFZFCFVYlajBMyblPZed4xU2JfpFIUSMiGODf7JJFLtV4bdgtFCE5CA6CqsalTVhanbavf/bpCSKzZTnMRHGOVPBzPioUbnZc9Mmf/D2pBl5+bOnzU6bnp323IycydlpE/K8s7NJJS07Jy1/Wv4ESJOzc9Oy58z84O3Z07JzJuFHXs60WXlos71p03JyZ0yf5s3OFa0KxYBgmtJR6VYkxACl+6M53uzZYtCM6ZOF6KH8nwzG/lMGrYv2PtDSB1tRqlIoOu0vHJx8StUGH/ze8qzHG7YWoadJoRAlUcLWWSgFYvrDvkhUa3VR8YokCzvvGNHZliVsoxShNuix0hlMLEjxlAhFUYuGdvGbuGIruBS8C5lQi8Sy6yau2gqEuE8oFtWXODTDxC22gt6he4RiVX1jrXNM3GqbV1l3RihRqm/TQyUmHmUriGRmCsWm+u5/L2LiNkN/E9UffC3axJtQf0+hRKv+C+6uJh5tKyhO7yeUGNUf9/shJh5Dv5xCiVX9n3w61cRjqR96mqp+24t3+NvUNn9dICiUONU/76s3TTyOeGs5vm2nzSYeTxzjraq/xP83E08w/I1X/f3WHDHxZhwPParqP/XZaRNPJB/4Cz1fpP5i4s0NPQmqtu9N1cRb2Aoq6yKMg7Yyt62JJxlxaKZqW//Yw8RbGnGIUrVlVf1MvJURf1XVrv3htybeupGPNu/GkyaebPBJVLWsmAkmnmIrcCd3Z/y1+/rMNPE2ht3mqpaSv8DE29rm54dfYTy1lqsXm3g7xgfxBJ8pG5eZeHuDD+Jwyb3OxFONOGB8dYdKE+9gjEccBlcdMfG7TD7dlE9NPM3gA3+79bho4h0Nf6H/xoPfmHgnU/+CT66b+N2G/li1YRXqeGeOR73FqQur375p4l3oL+ohVi08fnimiXc1xieqRTPP2U28mxHnZmrRgp5vm3h3w25z1Ve7tpWJ92j0y3c002nivzH8wnpMe+ExE+/ZWA++sh9fN/Fe5AN/FdVXOfOkiacb+wPq9mhSjInbDf2o8/xed/Dpbehpofpr6vuY+L22Am+4s1CSVH+n70eb+H3EH+H+4N9mzTXxPoYerMfQI0tN/H7GE/WD9dt700YTf4A44gw+xy7uMPEHDT3NsD90PmHiDxnxxP6zZsvPJv6wsf+gHmb3ijXxvoYeRdWuHG1j4v0a46OVze1m4v2N+GC9LNTSTTzDsIu6mlJzR74cBh6nasPiR5m40/Crpaq90fOOPLqMuEH/xF1TTHyAoQf83b/mm/hAk3/NCr+JDzL5Lxzyqok/YvCHnsfGvmnigw09WF9nftps4pmNdaidab/DxN2GHvj1TvcKEx9i+IU43Bq618SHGvzB88tAxMQfNXhiP3yj73kTH2bsh/HQP/AHE/+toR92bzx1zcSHGzj4D1tw28RHGPxVdVH0HquJjzT8VdRFR0viTHyUzidGUe68HKgvesMPWFrWFn558Jql55SHjw9pXXD96zWWZrZHrSLqWqyIUxURK1RccJqIaNxk7vwRryS8iHtRsyxRWNJjSJGwtClKu/2qr7bC5uv2fQff9qcn+PZdXO0bmnnOf3Rbgn/5w3b/gTMj/BmuSf4z82f5s770+3+9vtT/er+1/jUvVPuH/fmo/8qgG1pJ9wTNO72DdirWrv1hs1PrvWuw1uL8GO3a3ZO1y8NzNPe4OVrNZU1bc3S1ds/0d7Xod/+mRZ86rH164SPtqaLPeQsRC8Xdlwpn2qYWVV/vUXR82Drfjd5Jvsu1/X1Do8f6al9a7rtwu9b/1Nkm/tifk/zj37vPv3Nnlt99dJZ/ZNMl/n0zNvgnvrPd/8y3H/vvz72sZSyJ0ap7t9HyP+uqDf+6l9Y73am1nDVSm1wyTuvZboqWOD5fW3bTpw3fskxLK39DW/f7zdq6Bdu1Oa+EtENle7Sy78Pa5FVfaHPW/7d2YN9VreWFW4u+m21dtHVQXBLCi6Di2qgsUJSXFLFQEYWKKFKETxF+RWiKWKSIlxWxHhekGkUcUawfKuIYRqjiNVWxKUgEr5kxomnDjUy/iC6eW/m9vIsuFtXR8fqFtC1/p6odxF2iiwJ984Jr186LhMPzVUVhl4X/4UasiK6ivZKgtHkJv9uJztj2fSpolp3ZF6PyHis68QYs6yhnwvS0UTnTX0h7ZEJO/oRcYWvgo9OAY3h084334T/BuK3VXyxCiWT2dxWnh5wWCqWBuU57yO5yJ3cmcI8rkrna4fEmYkSswzLe+4szVNepsjj9kGwtpYHlUihOH++sDzZ1YEozpxBrHBV1ezENOkoDI/FjrpOttELBnXzVyRGhukSXnBLJ7AIL450e770ujFgODhkADslWmqVAHnKETqyLi0wNHf1B+Sr06L4IJcWTJCULhfrgeaiOx/gbTkt9sAkmNXUJ8Su4t3BZ7KELENpgOL1q48KILVJI8dA7jHAnvwShKaLzDIhARyRzDPw9D3tjnNIKBXtoKdx8BuAMp5ziTu7rpA53cirNboGgYPgh2UqzFMjDGNEETvSVTKUOUqdStrQifkW66oMW+HPQqaZ4qmHqA0a0CkOOwnY5SH1MYBs0ngWhTc7x3s9JZjXMXEDvEtmC7otSKA1MwdRPnZa88AhkpNbJNsVzSAdSPFUAPCC0i8BzGL4V4GI8ZU61oq4SzgTJ+78wbAW0/wJCGofaXOO90wDa4FAvHUjxfOMY770JZStYSN+CYTyAMHgMyICOHdCeXhnJXCJbAH2kUB/8CuUS77B4vAMd9cFSR4qnpSMv3NGperwOWOjOMA2GkmjwHw9m31D7CzBzGAW4RLawv14KxenbEJQ6B2JfhaFWTKlCB2JPoDRwH/TsxDOAEfoLtI8AyzfxjHOq473jMOVpumuBkjlwdZejNFDixFLMcthD6zAvyyHEPh2oqPuM0QHdHxn/c6h1FXm7G2A0C+oJ2I1HUEpkC3P7pQB3oVjlCAU5/w5B1dMtLiH3xelvgSWiU5w+RQpCdIPZ6gzEoBZheo4uOyKZVx2YnwrbGeDOdjE5pKJ3B6wsActPGLZa8L+CGHSBY1YXaE9GbzxS9qZsEZSdUigNHIOVGK7MiyBkBe1raK86wSMK6+ginIpFyR4h0AwluxVAM+h5xalSqA/OoFCD/BlCXngjI3oCId7oRL5OwJtyTDoGe/udloq6A6AUgdEQ7JzWs+FOPg9wpWxBbbEUitPnwoFTHPEfEI5jShYCiFVhDw2A9h2YMgDAeq4XCnJZsScTmkfh6arP9Xhj8OOPUPijA5EoxsIJI16rZYspZVJwJ++ChS9YUXtA+TuMOAxdUQxvGKZagtQJ6OpOcwkITRrrpSlCcgrFx0wGHAB+xrCbGVyi2DwzQLUaytKxi+rpFc9zmT+LNOFyQMEeKncgbhvA4SQDSOG0U7WHFmEFGQLNQFBgwxAq6i44VXdyIby+7TCEqxSsyJUhwIJuAi1OF/ENqiwv7IMLzSsRhuFSSPGkgPDuDGS3BoU9Eel7BYZ/YFzuQUy4y92DsgswthQqEKQSdJzl0v8QwnXEtS10RbkAjIDASqcVVJk7eZUU7KEytLLKKhGGKJT/ATC+zfV0HLn5CRxOwFIdK+ekKeAm50K0W2C8IcATAeEUWBhCRd02+ntCCkjAR5hehJDth85ezGYFsrg+Q4gyqAv1hxsrwaV5ZUMoeJ68hTkXuLDek4IQVWBpY+aPgGY7GIugYwCB08hPNlSfBm0EhUJpYB1UR0BgJwuOUw4DqEKLHZtKI5nnMP8t2WJEQAopnnmYEuHCmggdPBDHYprUMQScSzFqiG6FAvdzjnAnD+QxMBGk2ksdoTowpVJSpxW24nXrv/cUgCtlC2r/ynuKwltYfTDVhVskz6ohLqz7r3WhOH273tUwRqzDPsCFyalgOlkKpYEu6D2SgYxEsCfNQc5LkO5bDZUxABRSAdxRGfZQCRJzgow/xogriFZXPKgMe0ivDHuISw2VEcncIwV76FO4b3PByjWETiDnrI46Ko2DcBwOxiEMW7nvMTlbqf1DZGofolUNhmGG/6+g/Bl66f5n3EOKpeBOng9Stfrq4NKtD45BRzmTOxjDN6B3MMCADuSFJ4DuGCjOYCFOhO3WmDYfoEVXGsn8HHHgsv2c198tUmCRuJN/dsBKNZyKwnMQvrSl2WMYYYeV43iGO1U6QwHKKMRhGLflcgcq9hqYpaPCz8HswgzkYS+ByobECF7fG36g4rOlwPKzhw5xeC2I5CEPSxD6G3qWIpkuMLsjS6TKEcXpxvq1h67A/65wGVmiUiaFVtjiGnZQCsXpF/URpQEVtK+AYSxA6IhkJrmolK20QoFmOULy4BQSow7JlEpJnVbYCsXjXYVAnOFNjQv/DIKwGwpUBrAGDrTBE4YJF0+Yk1hH2UjVSYDIGwWPtxQ/wtC2U59SHzyMZzfsIfdUmhf+HKNWyRaxXywF3hzlCC5fTskLj9Z1sBiolK20QkE3O1rnwSkkRh2SKZWSOq2wFX4VJyxOCV6lsQojsCCPau5mhoADS8iDCq0uVNTV8OznyVHDcByCgdFI0jaEf3uGJVS3EpzqKrhy2aJqBkmBhzbymoG1cRbZZhltwV6zgzrmgFMMWD+P03yYU6VgMHi8gdPjcHsKK+QJOPUAxubCXgrd9uPHVRBYKVsAm6XAgy3FE80pH8BwK8yvAed0LpsIeobCJd11MYbXm+a60/XBPeiArzy20PI2EsiQXbQrhdLAMkS0A6/8r+lCJDOsdzXoEV/hD0P0AxoEug2HhBirj6PAk0bNCz8hBdCcBt4CJeqHTmw3pYHXMTYeKdgqW9TRDinwPhLJBMAzgMuVL0iRzDheNg7BI5zfeJlFWk4AfR/B/4Qb0rvw5hTmb5QttC+Xgjv5Zdg/zhHPY/hhgE+jOioZ2cfR+y7mPw7wLe5uFAx30Aqx5x86yXGNAnr0LrS40AFHXyo30whGp2KprsFmcDdP5qewALvD3aewKeClWhf6yhFCuPQpeeHBjC+8HEwgXQqlATfsYARLnlP0FjooUClHSCucQrPUwVbYhUKa8q5GASRNvlJo7KIg1mKLI4pevRuaXDjmR0OdIfCygARTF/LKF0+cSQjly6CAvHL5ccfKC78vW6TiEynYQ5fAGiMq6m5h6C34piIcUMYDigKGRkO4hZzwDRxDhbgLnyD44pYuW8wdKAV38kiMVFzYQp9EPOqh8EmYrOCh/SR6wN4e6mMKpYEyprwPxnwAvr2g5CPuv12h6SzId5AtCCRJgXXIQw5TmsB4NRg1gY7NrJImutYUzz5EwBCK09+htn0YxzOjHCvxGMu0DKrPwtEVssXuUSyF0sBCPNj37KGZmHsM03jk7yXAqtwFgEWGGxYFWNGTgVbIbY2ox7v2H3RLoTFXjQLDayaNn02YAe6sMiWhujXQx8VYLVss13NSsId+xKgmrCwrfgikJRYxrOc2k4jIREA/EcB7vBQmYj4Y8AKNtkFYx8X/MajsRiD2AzhKAuXw9wyMr5UtlucSKfA1RS7x+mAuDH8I9VPwVFPHE2D0VxkZui7Ko3gaewB0q8RwnsLdKuuD1xmGDFTOJiyvkxmlgRxsxwU8BROwDR/GjwSMaE8OCfgxDKn6HRbBMzQZwGeDIvA4gI4/MRkCtl/H0wVcVvGIGQ7+Qew9eWilY3/G8A34EYT5TUz5VgzdAj924XmXRVGF+dsR7ip07GZ9EqjSe1iFdEref6kgxfMl9rxlsoW5BVKIZE7FXNyh8TEPpo7DpBs69vJ10wNnDlFZEV4RebveB+Ay06PihwU5ux8tvoHUB6fCFD91vSpbKOMLIBfqHnCP5W5yEtqjAfwdJvFRpDRwDXZ/waNgVfyd9RuF+SfAMAq5r+Rtii8PSDXvSmh1IVT3Bs/QailgQ3gfGkYgxu+A9K88Q4MQ+mUweHj96wvDhWDQrRLeyJb1XQSpmpf0V6XAOTxZEZOtIHcVqdwF9S0YccazB0JYhRFD+KGMcX2JN4QK9BSgZzvauQzwOwhdPoAN0JHL9K1GcGbix2uouuec4PqfUPIs+L4MYBq150PgTY/XVw/jOhJTxkLHIFjJZNU8hB8PYtpDGNFRBzxeBVNGolDO04ds6UODU0LDCmbW5eqkwNWGyG3PaBQauyjwG8F+XCZ6uXCezsdoQ6gP/obXr/nwrjWehXhi6YMPQ26i+gMY8RNvyUvQcwkKVsgWeX1LCizhvPC3TNHbAH7ESVUG5y47cAUoh45z/RGybXBidP/i9E0YEQrBu1UAwhVcIBhagRhmY2hqZUVdP3hX1x9AcwRkL1z4CSU5i/fg/fC9GofbfpBK5qVA94YfXniXo48opaUQdvDWcRACEI+3KTZhCEIcABJwghbfRFBlQtTo5cZZfPvG4L46wjcmtNwIqRmzWHRSj44gnvzswn0SnlUBNTbM0sBjslsKfAPCzumRAryeiq6f4NdcFMtt1paGBEfhy/ZyJBvv1fbQBgi8qLP6sLz4XkWB7+d4JeEOGo1VdB1Vy/dqnAb1wWSspgooZhvQAX7ecScn4oPuD3zNjMZnpYngeRUgvgjlhbkt4wMJvoawReY2SqE++Brz0x/rYxFyym8r8zClFxfM0/CBu4MH9PFdhhtoo9AYAQpC4VdXxgzH+jj0ZcPZSZg9gEtlFn60Q68Pjtu4mJai5wIW4nrZYgsqlwJf/3HD427F7b89pp0GlYFcO19g7hQQ/QJ6YIUCP6rwq5r8ymIPRTDiEHr3g2OEOsoxn06vly2ApVJglRvfckjsMJ5JmAIdpM7PP2xpRWabX67oIlJ6EsPgvX7Z38Yg/7OfpxDT4VLgFV3mhR9EmKj/7y91/PjWKMha5ge6RqExAhT+RT+yif8B(/figma)--&gt;&quot;&gt;&lt;/span&gt;&lt;span style=&quot;&quot;&gt;Osez dÃ©couvrir le monde autrement en&lt;br&gt;vivant des expÃ©riences uniques et insolites&lt;/span&gt;" style="text;html=1;strokeColor=none;fillColor=none;align=center;verticalAlign=middle;whiteSpace=wrap;rounded=0;" parent="1" vertex="1">
                    <mxGeometry x="60" y="500" width="330" height="50" as="geometry"/>
                </mxCell>
                <mxCell id="40" value="Img1" style="rounded=0;whiteSpace=wrap;html=1;" parent="1" vertex="1">
                    <mxGeometry x="70" y="550" width="100" height="50" as="geometry"/>
                </mxCell>
                <mxCell id="41" value="Img2" style="rounded=0;whiteSpace=wrap;html=1;" parent="1" vertex="1">
                    <mxGeometry x="70" y="610" width="100" height="50" as="geometry"/>
                </mxCell>
                <mxCell id="42" value="Img3" style="rounded=0;whiteSpace=wrap;html=1;" parent="1" vertex="1">
                    <mxGeometry x="181" y="550" width="100" height="77" as="geometry"/>
                </mxCell>
                <mxCell id="43" value="Img4" style="rounded=0;whiteSpace=wrap;html=1;" parent="1" vertex="1">
                    <mxGeometry x="300" y="550" width="120" height="80" as="geometry"/>
                </mxCell>
                <mxCell id="44" value="Page d'accueil" style="text;html=1;strokeColor=none;fillColor=none;align=center;verticalAlign=middle;whiteSpace=wrap;rounded=0;" parent="1" vertex="1">
                    <mxGeometry x="39" y="10" width="101" height="30" as="geometry"/>
                </mxCell>
            </root>
        </mxGraphModel>
    </diagram>
    <diagram id="zt7C2ZEDmUXjr5ai26M_" name="Page-2">
        <mxGraphModel dx="816" dy="306" grid="1" gridSize="10" guides="1" tooltips="1" connect="1" arrows="1" fold="1" page="1" pageScale="1" pageWidth="850" pageHeight="1100" math="0" shadow="0">
            <root>
                <mxCell id="0"/>
                <mxCell id="1" parent="0"/>
                <mxCell id="Q4VQ6FfQypADlnkams-a-1" value="" style="rounded=0;whiteSpace=wrap;html=1;" parent="1" vertex="1">
                    <mxGeometry x="40" y="40" width="430" height="1050" as="geometry"/>
                </mxCell>
                <mxCell id="Q4VQ6FfQypADlnkams-a-2" value="" style="rounded=0;whiteSpace=wrap;html=1;" parent="1" vertex="1">
                    <mxGeometry x="53" y="270" width="397" height="640" as="geometry"/>
                </mxCell>
                <mxCell id="Q4VQ6FfQypADlnkams-a-3" value="" style="rounded=0;whiteSpace=wrap;html=1;" parent="1" vertex="1">
                    <mxGeometry x="40" y="40" width="420" height="40" as="geometry"/>
                </mxCell>
                <mxCell id="Q4VQ6FfQypADlnkams-a-4" value="logo" style="rounded=0;whiteSpace=wrap;html=1;" parent="1" vertex="1">
                    <mxGeometry x="50" y="45" width="60" height="30" as="geometry"/>
                </mxCell>
                <mxCell id="Q4VQ6FfQypADlnkams-a-5" value="nav" style="rounded=0;whiteSpace=wrap;html=1;" parent="1" vertex="1">
                    <mxGeometry x="140" y="45" width="230" height="30" as="geometry"/>
                </mxCell>
                <mxCell id="Q4VQ6FfQypADlnkams-a-6" value="login" style="rounded=0;whiteSpace=wrap;html=1;" parent="1" vertex="1">
                    <mxGeometry x="380" y="45" width="70" height="30" as="geometry"/>
                </mxCell>
                <mxCell id="Q4VQ6FfQypADlnkams-a-7" value="Distination6" style="rounded=0;whiteSpace=wrap;html=1;" parent="1" vertex="1">
                    <mxGeometry x="268" y="494" width="120" height="76" as="geometry"/>
                </mxCell>
                <mxCell id="Q4VQ6FfQypADlnkams-a-8" value="Distination5" style="rounded=0;whiteSpace=wrap;html=1;" parent="1" vertex="1">
                    <mxGeometry x="70" y="494" width="130" height="76" as="geometry"/>
                </mxCell>
                <mxCell id="Q4VQ6FfQypADlnkams-a-9" value="Distination3" style="rounded=0;whiteSpace=wrap;html=1;" parent="1" vertex="1">
                    <mxGeometry x="70" y="400" width="130" height="77" as="geometry"/>
                </mxCell>
                <mxCell id="Q4VQ6FfQypADlnkams-a-10" value="Distination2" style="rounded=0;whiteSpace=wrap;html=1;" parent="1" vertex="1">
                    <mxGeometry x="267" y="290" width="119" height="90" as="geometry"/>
                </mxCell>
                <mxCell id="Q4VQ6FfQypADlnkams-a-11" value="Distination4" style="rounded=0;whiteSpace=wrap;html=1;" parent="1" vertex="1">
                    <mxGeometry x="267" y="400" width="120" height="80" as="geometry"/>
                </mxCell>
                <mxCell id="Q4VQ6FfQypADlnkams-a-12" value="Distination1" style="rounded=0;whiteSpace=wrap;html=1;" parent="1" vertex="1">
                    <mxGeometry x="70" y="290" width="130" height="90" as="geometry"/>
                </mxCell>
                <mxCell id="Q4VQ6FfQypADlnkams-a-13" value="footer" style="rounded=0;whiteSpace=wrap;html=1;" parent="1" vertex="1">
                    <mxGeometry x="45" y="1040" width="420" height="50" as="geometry"/>
                </mxCell>
                <mxCell id="Q4VQ6FfQypADlnkams-a-14" value="" style="rounded=0;whiteSpace=wrap;html=1;" parent="1" vertex="1">
                    <mxGeometry x="53" y="92" width="400" height="123" as="geometry"/>
                </mxCell>
                <mxCell id="Q4VQ6FfQypADlnkams-a-17" value="Image Background" style="text;html=1;strokeColor=none;fillColor=none;align=center;verticalAlign=middle;whiteSpace=wrap;rounded=0;" parent="1" vertex="1">
                    <mxGeometry x="60" y="95" width="120" height="30" as="geometry"/>
                </mxCell>
                <mxCell id="Q4VQ6FfQypADlnkams-a-21" value="&lt;span data-metadata=&quot;&lt;!--(figmeta)eyJmaWxlS2V5IjoiVVBid014dVNxUkZRQlBRbFppSklMdSIsInBhc3RlSUQiOjc0Mzg4NDE5MSwiZGF0YVR5cGUiOiJzY2VuZSJ9Cg==(/figmeta)--&gt;&quot;&gt;&lt;/span&gt;&lt;span data-buffer=&quot;&lt;!--(figma)ZmlnLWtpd2kwAAAAr0YAALW9e5xkSVXgH3FvZj26+jHvFzPD+yEizovhISJZmbeqsjtfkzezembUSbIqb3UlnZVZ5s3q6WZdFxERERFQERERWUREFhERERFxRERERERERERElmVZlnVdlmVZ9/c9EXEfWd3D+s+PD9MRceLEiRMnTpw4cSLy1h949SiO+2eizoX9SKlrTjarjV7YKbU7iv81mpWgV94oNdaDkKLuhkE7V/YMdtCokPfD6nqjVCNXCDv31AIyRZPphYHQWjC4hnIvPFVt9dpBrVmSlouNZqe6dk8v3Gh2a5Vet7XeLlWk/ZLL9irNhpSXk3I7WGsH4QagI2E5aAQ9wK2N3l3doH0PwJU8sB20agI8WqmurZEeK9eqQaPTW23Te7kUCm/Hc7ydbHbbjCMQzk6EnXZQqtsaype5sh3x5dVGJ2iXyp3qJoOsVWHMioa6K9pBudloBGUGm2Mm4fDKS1cnvF5l+KGXXrVRbgd1+C3VqHVtwLi6dH4YMwF3k1fSRJe2t5lIQHBY6TUbhpAyhdPtakeY0o3JIGrt9uMINOiWOmaUINWbmyarTw/Hg+H4TPtgJDiNZuPeoN2kQjUrpl4oWE15LJUBIFVplrvCIVldLjU2SyE5b73d7LbI+GvtUl3wCqvNZi0oNXrNFkLrVJsNgMVNhtNsk1sQGZMu1qqG7FJQq1VboWSXGXgHuRqdOtIO1ru1UrvXatbuWTdEVuiqUQkqIqAU72gnuFtYOsbElAVwPLynvtoU/TxRbdBZw0CZ0Wr5lIjq8nCj1Ap6p6udjZ5re4WTt2HwyrKshdVas3yK0lWnq5V1o9dXQ6suI72mHlSqJTLXblTXN2r8J9XXhRCwg73eZXsIu10rSac3nC6FG9Veh54pPWSz1K6WVg3/N3Zc5iaT6ZWRB6WbExS3qh7K8MxaeVgpDKshE9qDcrMrdQ+/WD+DmlEmKh+REhJu2lQCfGS9WemaXh9l8depoPRoW2o3T1N4TLjb349OD2e7nej8zCrDzeFd3VI7oFbBp5s3jTjqTbNUvA6dycywuin6abHSPC2iKVxqCoutUrtUq2EmWB31XttJdGEeXAvWBLoYNNZ7lRLCKpnOl6TMcutKYVkKa1VD9YjJN2uVQGZ1pcPCC+5tmmEebbWDSrCGAlZ6rXazHISiyseYoaAm9ccTVe+FVcfjiRRU79Y61ZYBXlYvNbos2GqjZSbi8o3g7pLV1SvKG8Fm22SvbNHMga9qMmybFX0Szq5p1brS/bWlNnJPhnmdLSWyuD7s1uvw0jvZbTDPhsANRl0fEraCoLzRW+2uMskAbjTagGXDmjXbJWOlblodReNBnTUt7KBBvc4GM7EulhXb364be64rpfapQEh7bpCiur4sVNbhKuaSYqHcrDXTUtGov2mzEGJpTM4sbVpUmiwdyku2SVJcFkVEeckeCZtrnZ6hQWllo9RGrV3J2PGgHdj1eyy4u4yc7MiPb5jZPhGWOt3UxFxmeiFzea2LqJphtSNdXNHqD8dOe5fCJvoNUKFRlSrTQm/CKhCdgiQ18sC2kRUQmiq2CJifwkBySl+o1q2Yi9jXk1UyC5ssIzGni9U9ttxwuz+KrPTZM9tBp2wEv1aVcWr01fTWsXrrBzs70bbjuFDFMLXZMUssICpVpd1sZUW91sRMMpPsIKu1rjDorZbKp+ZBvqzfstkNFppoVBXlAKy6LSw0qa41T5sMLHQsDyEaUeuVSy3RzEJWYkG1y2YHKQrRSrQ9mfZnw8mYNsk+Qc/ML3Ilrxlu9VSQaZtXi/qy8XSmwz1KSRto9zYCN/O6cbC3FU274+Eshm67JENVrerdQS0ko+GavVQwvfJkHM+m2QwvMvPAldSbIel6SbZODz6c2P2wzK5PprAGxUrPtii6gsFeCGfTydmoNBqeGdMgJabYUJhYMhrL67KeRS7399HIZDwM16iGTu2lZxe0yEUG4dticFe3WmN7xtABLDidEhNmHZMi4kP5MKApaCG/6yxm+0rvVspLufJtlJdz5dspH8mV76C8kis/ifLRXPlOysfK1XY53/txO9qTk6FIpo6/0QaqVoPNQEagk4F7q5PJKOqPm/tRoiCFbsOuVMRIM9kkyeuwu4ptNnnvbrOAjb4a4W9MpsPnTMaz/ojmzjLm5hZdNlLwTnbZ3teqhsOs9WY0nQ1ZegJrtqjKNV1tdjrNOjmvPjmIo/LBNJ5MkQ/bQgnbR4Uqt5shK63aJq+DewJZeqgeJQ/vz3TVKjEUbGEZFadcwNKTFEnK1Rq5hbpYVGmyyBTjU5NbSufPFJc3WeyTaX04nQoD6Soys06qTQYLhGVkR+uICnuVfrxr7YlXZhcGpDIF18bm2PVQaDXWAamTrUBSHW5K4rUq4iH7wfn9yXR2eA35eEOYdDY/t1BUAsAXMv3rBJAuWa/WvzA5mK1PhwNLpGCXVU7iGYOeXWV+1qbVn82i6ZgqsKots0Kw0cZWazOfB7NJO4qHz4F0KiLDjpFMyodOc54060wPxttO/bxKNRQ/SGgqXG52UzI6nF0YRWHkxs7UtcOms48djgAkuox2WV3hNIKr0SjLxuJ3gnqLDdb4+YWEDMKcRakkL9pvyOpkt8Bw9LfP2mlMx7SBgb4X6RoONBslbqvJW2yj13R3kXStSL1VlExMDHnfNChPDmBo6totPFg7xO4mxy91O7JzFXKkiobUyYN4Nty5QPFBqbRKZXzPzcAeSnxbXg06p61jgJSgE9pZNAYXIKeSsHpv0Os0sTJGQHMAlI5JrtZbuPeUpAYcK43WJB7K5LKfAHKMq9IqYu/ag5BBOz0V28xewwGp1AKsXGqr8yJy0wd2Qu3wGDQoY5Ys3dpJXk6mDlNg/S45TFPW3baZuFU2ZFK/XGsaj7WAR99LvHLKxW4LfzbomWNFr91tdKrmILXAKqtUxbsxCrCYb9bDgRecpSr8Tvs5di7j3IFNMF2q0hos9YQe+xVlXW9yssdfJe/ZvK3wabUhfhn5gq3AwxC0oi0Zd34BLFxn4y0vumEvVfAxSZepOxXckzQ7QnGzaU9kK+Tt4DbMBB9NyyxDysdsF4k2HbdFzpCb0vpEZ9of23m2I7yBXZizQ6fHtsF+LAICTbG8mXfTRK8RPCD17HFmrd1Mjw9+DpRsH4UczG4UxRwk3SkWWt1ww8IcscUMktBaykCW1HIGSCkdkWO4hTlKKxkkoXQ0A1lKiCkBpJSOW0aZRJASYifmgAm9y+agluTlc7CU6hWmJwd1RK/MwxKaV+WBluTVeVBK8RpsXrWM1pr5uRaHkghMqYEpNOv0Os4OTVzMDHJ90I9Z1nbGjxMkKXdXq2UqlJBOCrrayBc9sVfWTaeFrLu0qiB4c5CibTsHW7CmPi0vhq223SeW1lFP1l0KWHaoKeCIzZkFwkq1q2NlHtg5LTbl6CHgBucmwMfC7elkNKoMp9a8wLRbY99kV0DCxmrbttimmViDaIBlm0XUB3e32CCtoS1DQTwtU9LrXbYm7cUEk+iM/KLSownuksl65ckIf0QXpmpZ6TP8423xj9/nn4J1WWh8npK+wD9eGxDYGeB+/vF3+adgKIWzyT4NtiWvnqX0vjPdINiuBGGzP1Wevy1FwTEZgb21oLxcA7/en02H55Ve2LvlFsp675ZbSby9W24j8fduFWBh71YBFvduFeBCqz/FrlfHg4h23pmD4UDdl+NiRXn20EHluf7oIKKNPjAHkBuVt4ZYG/29SGl/p783HF0AX8ey45MRzmbx9nS4P6PkCy48D/s0OdiLpsPtteGZgylzwR7vDtoKPUUByGjiEyZ4St50M9803O9vswrm2hKwwO0Qq2fKmkiIO5tegsCaaIMMME8By0sIwuTxytB/oxD51uX+foz2Z01YsOaQqkl6ScFrBRwYhXUfQC8tiaNPwFWyRUAMdp3sQo5+K5F7ni0OAvzLeQAfjIzhJzRCZnJSrCqLwKxNHUZ7kBpun46GZ3Znc0jE/2RIKUqVE8Rwew4lo8MRxewsa1F/ZibqH3WL8yhVqnxby6C40XjlVihwX0ZFagZKWnTB0wXCReJYLzbblQbpUmmtLfXLlYaxgkca3boMbQX3XwKIR9moRTTHKjY9LucC0hMcnyW9rFQyR5HLyza9grOYpFeGtnxVe9NEYa4Wi0B6TXjaBMuvLYenJb2OSRb49eWyiVzeEFof7yEbRBBJb3Te1E3NdkP4u1mEQvpQNlaR38MqHXPifvharSTjeER9vS1+xSNDdJb0UZxtpP9Hr+GKkz5mw6aP3bD9Pq5jy99yl00f37Lpt8p5jfQJtbVVKX9bs2XSJ7Y7Jv32lm1/S+tUQ+R0aw27RXobqfB5e7tTk/IdpFJ+Umm1vUl6Z2l1U8pPJhW+n7Jp6Tx1E4ZIn7ZaOy3z8x2kgvd0UsH7ztKpDRnHM8onzTn0u8prZkE9s9wy5VK52xa8VXwMKZexqpJW1iz9gFCi8LNGehvpOuntpBt0K/1VSYX+yQ07HnpbF35qG82Tojf408YxalTxYEibJ1tPfgpp62TrKULnrpOtp95C2j7ZuuUO0rB2si7tOgSpBb/LdirzsileFelpUuHj7vqpusDvadSMP3hvo3uqQ/rd7DzC1/eQhqTfu4nASe9rhR2B90gF/qz2qbaU++3WhqRb7e6qzPt2iDtOOuhYPqJOw5yUdpgmmb8zmwTmSHc3bf1w04772ZunjL6c3Wx32qQj0ttI98IQC67UmFTKE9LbSfdJ7yD9PtInkU5J7ySNSZ9MOiMVOR2QPpX0XBhi+5W6n1TonScVehdIhd5zSIXevyEVet9PKvT+LanQ+wFSoffvSIXec3UY3iYEf1CXNw2Hz5OMkPwhyQjN50tGiP6wZITqCyQjZH9EMkL3hZIRwj8qGaH8IjKG1R+TjFB+sWSE8o9LRii/RDJC+SckI5RfKhmh/DLJCOWXS0Yo/6RkhPJPkTE8/7RkhPIrJCOUf0YyQvmVkhHKPysZofwqyQjln5OMUH61ZITyz0tGKL+GzO1C+RckI5RfKxmh/IuSEcqvk4xQ/veSEcqvl4xQ/iXJCOU3SEYo/7JkhPIbydwhlH9FMkL5TZIRyr8qGaH8ZskI5f8gGaH8FskI5V+TjFB+q2SE8q9LRii/jcyThPJvSEYov10yQvk3JSOU3yEZofxbkhHK75SMUP5tyQjld0lGKP+OZITyu8ncKZR/VzJC+T2SEcq/Jxmh/F7JCOXfl4xQfkAyQvkPJCOU3ycZofyHkhHK7yfzZKH8R5IRyh+QjFD+Y8kI5Q9KRij/iWSE8ockI5T/VDJC+cOSEcp/Jhmh/BEyTxHKfy4ZofxRyQjlv5CMUP6YZITyX0pGKH9cMkL5ryQjlD8hGaH815IRyp8kY0zU30hGKH9KMkL5byUjlD8tGaH8d5IRyp+RjFD+e8kI5c9KRij/g2SE8uf04SgVLtqM7VrdoXTiqnnizNb7+/viLGlvZzrZE/duNuFfb3U02VJab12YRbHytQ2PKc/nfnRXymPx7PDjBv1Z3+AuKn9zOIgmyvMSnPj27nQkSK1+PIvCycF0GxJePMW7w0ERd3C63ZBQDh0C4lBeFu+1NHg2UROll2bCOD5lvNsfTO6PyXq7uC3EHHbxMfFaB9GsPxyRK0SMNxZHBO/1HDGJiNgY+YVZtGeCqbZq8dxwi4MxbCxz6BS52G7dLb/yjvz/2+U23tkUYZBf3poKzTE9UzpimFHetWaSLlPWjVfPUt5EvNmZnA78c8N4uIXgtCqQuKup46oYcwqI1Y5egPY43plM99Sz1eLQzNiLtFoyuc4urvpYWAe03B8D5MRTlSqBXGYhuJd4v0ztorqccv4W5gp1xEJ2JwejQVn4q/fHAODnmumEoxONYXMlliZkju4Y2RpMN6Uv1erYvox0zVRhidXxaG/y7GGZHlqEx5Hxoj5xzijSi7W6glD2meGY45X0fHo4mO3C2ZVz0A3ryS6qq7alJ5xlOfpcbYQihV19rTjFdeatgrIqr3g2uqD2ld4BWhuOEwLMtEAqwzMRnPqcWihZV/r7VUEKzmcucu9BCdpDO2bP758fxp3+GZjQkm2IBNH7ZKWZ6Lrt/Mrt3b4cL6JpDIZOS6ajakWG78WSb56LpgR5o06fuVbv9rQ/MpFfEwjcQgO4mhrBfcz2oYtnRhf2d2P2Db0wSK+XYnYNvbjF+fTs9x1MZCG/UevLLJlNGAAFjpd2GEwqnVdovbzTH422iPGtURGrfX1kF6Wc0tnZ1cl5qLxG6xVK5N7g66OzNFzM8XnqTotFdczBo0Eq3+OjyRm5WjAonUk5GXtzZyeOZlgitaxP7A2TeGLa7vI9StC3vb9W6ysGHNPORYOaYeKNvr6yYgGZnI/aYTpp6TlpeZm0WM5z0mJhzUmruAMveeEsXCyLRTdSaMxJYMnBcxJY/ldI4Mjh0a4M7OBqhn9Ge3Qjx4PyClvEYgexGnD4tvbWndT93QSPA0SREGVKmEWQNYozpglhYFeSvD9kAY0ghcHZs21PsXQWVXHViVN5S9hAeypFyvebBcpCkrp7yPiSSUdfkFIp3oYUpUVM5mQa1XJXm1jIneE0nqVykb5gKF9eWJfJo+Ptyd5enyGs2t0nC0tsKbuCGDRjkAk0WkD/FxPvD84527xwsR1aNCBjZMJopr5QIG6bqgsb2ZTwDRLUSDDpTvZNpz+YhXPuLm0VM4QUDbjenzJtTvZ5Rm18yOiZtJRCI5rdPwHdjRBx7TEfzyFQxT/pOC+2FLKxczuElLSoQqzu0zq8sLc1GTnysSnQL/u9zSdEYiHgEcSRbSSE92gNYbEVMZkJWfTU+Ayeh25AYR8YriaBAqS3Ho1l80NCrq9JnrI+iKM1tGBdnBLGcWFsQjUaR2K4s9Mcjy60Efq5/shg+xWr+dW9vYOZjM7sTZauN0+XgrNnXimOo1l1AJeMH12bDsF5p9baVQSALkCgL0VRaOywyVcHOKiufTvaAeWsrU2Is7RMJYjeokhWRt8XiKC/i7aspRmDmxzsVwf4tso3M0T+vawhK2kKD2g8Btk+GBLF92m1kBRDQ/0DmihqnpSXrOn57kJH/cGqkw4fpH7TdYoi/D8wmohAhF0d/L8wQwZQeTAkHIkDuhs8WH1nN9r7JtyEGCMcGXCcDswkD/6H9NwkZXitKV6A8hZmUthMMfCBM26NuL0ZW4cTZ8xsaYxfB1BZfIp6f3zAnnghjEasy4ilrArDeHUyHTj35hIIxfhgSwKcW+xK0rkbw0LG27yCfgwFnasLqBA1nUkZJmWMJm/H9BF4DjFlsohklqEfEa3FlnnLO7jXp6zqxqYSEeFin7Pj3+jjnhN0FRG3+ulyjjkJsv85h784GuK2Ti/Imu9MQjcW0ATAaV0vYH/3J+No7JbQ4sF4ZyQ30nKxmCe5NIy7SZWRzLJlu5y0r/c5HSSGbzuBWqp6/2BrNIx3ISYdC7udSSfq79Uy9qQT73AnfpWTj5j2RHPDmQw7M0dCqrkT3g+nGBiHLFYM13uOhXlDc2m6m7f9qyizN/RHYW5GkiaWtH3DpLxj5hBwlXCCbplDgPEPsPj+lN3yQE4Mhew0UCRJTwML8f406g/AWIx3J/cja84xqxESHIh5Bn3J0thkU8JRXjaduMIR29iVVs67zNELLnOsIycMs81Wxzty1jOsbio9OLBGn349FHQ2kYpKdG64nTyqSK5lJHxmHn7oMgFNE+L1DIybGgnQU8buS8N2cqhgZ3GNy+XTPXNk1oc6wQ2SAmdhdN7tjowFqVUHTOVwZ8iGj9LTytL8HGu4ifjxE1vOc+gIAbWU3tArLueSmzwt+bTGk1Jyn+dzncQ4EsyCK6bIRQdI8BfsA0hyi46BVZztM1h6cb1YCmy4cEMv6ajlEpzLMXtHLfeE7hmVvoiAHUPaktBotdJLHvldjF5CR3GHREE9bysFGypfQpQZqCxqIrrY6HPYNTI0WKrYKG0SmTeXGIqryrZ9pajD0+Y6wJO0x42JQfDdnaV5JlAIOEFLkALKTKdYLTCSN6MgqLC9bq43CCG3INtr3d7bvAOAZ1uGHLmxDBj4I/HBzg63W1iMofhrhjUW5TZ+/Ux8jRkxR+XH586InTHnM+afYrVi1s1XWUWUmgcz8VHF8FOPiWM68AXFL6G8CMbahCBGaJ5zYbfOxoCX8GlKW/FkdDCLnGeHkdvOj+qftDriWN5cd10qr7rWawSBu2cs1U6X7gnJ6Jo5ucgLn8QU3Mk+yLFSedjwdNX744O9EHvBRMQK797ZCIIRsYWGsgxwbM8cYBWnrrRo+GIel/bFWE7H6ilqOUfJLfQjlporrcS2Vmg40NGMqoMcW2c/QY3MYRhWtSVBn8lm7rewjCDcjy1i2swz+iWFlZtz5PGhZBc2PnEo2Y6IQO7VrErLqzoSLuHazVMC8dyDdD9YW7PP4wpcNTTbkiu691AL2EH2HEMvt1PavqydTxwItz0mm6sgMNOMVTQH7mOBuCYxM5pYD8qeTLatcnfLGF6WCwIHYDRfZpgh3B1Ueqc3Alb0RrVW6TXXeraaW79e8psARshqv8fVSEOvNN1OueDQhhBL4zNIkYAVO0Cu6A3HuOFtY+gp+nbTqXEUpO3BdAiHejCM90f9C2YxrIgDbopG9+G/NTogxuJ62zcFJEkznHOCGjQ4awfaMnXtaNTntLtrGxT2DdA22ItscI0mbqrJ4l5VcJasr1SoH4xmQ+k9mq4No9Fg004FE7TNgkL2KIPOX7p75QkDlINJvS+RN6WWEv1wb5DEYJN4zir71giTKyR2uJha6AVp05t7L7CYdhCMB/tyIkQMkcvKRgobuKf7yeRvcZNuOXmpp/y0MRlsxaglrRhNDt2uaJqBYnFF8iE5qcdVrlYqNfOeC9tpdJkbrwRknwAlr6ps0/rQMkc3MUCh8govvwpTbNQAE4YWI5agtto8bS0QC6rkRMPW3La/ecla2WXopZuXuRFHVcnp0njs9lUsHjGH2QWLfb1brELbLlbNZaZ5fOGljw59bvJ6CbgghbSqWC/dnVaxb96dVS1akmntUpn72KDd4zKt2pXFspyagyNiIBCjfTGwYkrcY6/TUX7Kj66R662V6lXzEO+YKbrL3uOmcDrp/AQLNch4uawWdNCknjx7YwUDuZxJY6fOAFdYQKtUcW8or7QA9yTtKlsyXLnN7+qmNDZXxteUm/UW6m3g1xpWktFcd7HoladnIv3XMPtZLWox6m9FEh/S+xZTjh2v5bSfIdWjvkS0JdgjOh6KQVcFu5JUuoK0W1NespL8S1IgRmPMvpabBSFH3ptNXM5PoKaT13uqMJuE/T1bZDc2BqxplFdsy4w4AEq8wM6YgNeG57EebGmWZmgiBGaLeTObsjsg1CfnIueqTkaDU8ZkEbDAnq+lttrL4W4MCRxPL1QJ4tMkNncWQr1qRmLL5UMHBDzQaCQSNYyaQN1ZbODYNqO/nayrEXXO4kpw7GzXROwKp4eDMxFbCesXY+cR6jFt6TIYDAnOyQAKsyGmdNbf26/Gk6fcydUqpPE9piAKZQYlyNGgJNFwfxtPPikUpCJZwn4lkF8jMm/q9Ea1E6w2S21Z6tq8a5Ol47HhnXXIpVprQ66h5QmZaD05bX4r4n4j5s70DruBlgJUIUqOqUoedZpfxiQlL8SeoCohGsPulDVa7bIXkmpRd5aUNUBz2FYSbNtSUO9Ew2XY3f0BQ+2Oh+c7iYgYtAlHEe0bs/d4LzPHXRGopDZW/6T93X4cqQXlmYwF3rnPtp88ehopP1e0CE+eyVCPoK+kFvSUsZ3RoqQW9NRh3LJHV9FKFPotmmMeZ+h9GQy47/FGmdaZYb3RU8/NA50qqjd5+mfdZvt7xsMoSUxEwhTv0Or/IgssObvRorrVZS0H0TAOJzszt8uGUgUbb9VcT0zGVmKOtV8HtjYcjRKcn6dsXdwE8otAmufsWVVS2W+Suq9ZDjpIQ/2L5g7bFCtzg/29xLki/6samVzCs3qex7rNVWVu2nM97q9F0QlF4uNspqR+wj/kgL3XmzybA2p4wGJEb6aRMWPGpRD6f83OeK4+mYxHQ25+RheSfj+Fu7RLqBGT4qSAPO8jtu/AOWGYitclFakcDPiXE7Bz9dOKN6YV5oSfVfxKUiHefgZ+UwLO8cPBw7JB/W/r2AAHAAWFeJX6kJ0GA7OISc2f5mqEYYF9OAezTAn0z3JQ4UhgH8kdC1t97FOsfkrr39eX5HA1RYXLB1CakIVqg5hKq7+H7aTYslsQgQW8yaYE0mL1Wl9/OdEA469mKvBxrZ4DNQOdX1f/hlzaIB93+v58RaYzP2DBqQ3PaeAntHqlC5jNq+9L9UESXIJ6vpPXc4vIjtB9kOrPJfErxCQG4uNuB6nZVX7KLOof8x2Smfu/kvOQZc1WfwIxlm9jpH+dEItS/3hFfVLby9DyfKNvZFRE0pVoJ1bP9fWL8KdzYOQbq697+sc8N2qRwlu0+r6saG2JzA8bsBOmwCVg9W+5j8K0JCGudhRzGgzGMjHi1b8oiYgRgLENzQB/Yp41jBkXQeIvxOpfPP1iojaEN0vTaPVgyxH69TROFkqwjTHrr+k5EPG3T2n9dWPbEw9gkhTsEPaTBjXZrVVR/b63l+1c7/DoPHdVdHWSt42r7AL9M9P+/q5sBLg2y+qaQyCLeDKFJq9Ql9W1h2EW9dSMtVgaMfjcD7Yepx52CbBt0ElrNlk5cq+kHq8efhHQIncFXmZXU9eoRyR5W7UpxdxF1nXqkfMQi3Ya9yS5uxurx2UlW/09IqEG+x1X6d+S5G3V9xpyoiSv0urxScHW3ec0qeOg6tVa/UcjecIIw/6YaNDe3mRckxATfqSEUv7dXC0O0vnZQZ+zbIbxXFZhilIZsnQjGQcrLI/1g3ksu7mKvPIoz8ujYJXkkQHgH8qDQzwOluC90XRC1fPzVY0D+37Yvl2eqh++RKXTATUjiH5xLRdcxttR59SP5KvL8rb4vHphHpbue89RP6rZ5DFjCfGx+iWLmdqJD4LRZzz2ovUG9YAnjhHlFqd25GkIafXnCbiGfCj/Bafa8zWmXkJMf8f2abhjzTn36zPzIOPHvMtT/+DJLHXZsmsmmJXwsaj+REsNG+RouM0mfKj2xf5scoYIxqA5bnbW8F+RY8ys6D/VSQW3hHM1H9bpLbd6wFd/p8WUCLX3++pjmWIJKMa86+cb1laHg2HW7c8YWMde1wvo6eqVCCLe6A/anVqHOkTxei86fB38I35sb2zc05oNNANZvzD3UmfBZa32P40bgLPGpi3anAV/R/bIZ8llbcXTaZlG9pfTgq38zhj7RARhRVIL+i5inekLoKNpwVY+cwB7GET0ZKyW9bFc0SKU9nD74e0ySS2oItlq3LRxUequmANYpDWBGTP6dk/9bs5faNqxMKwrLwLapuvYHM55aaDqqnzZomzExptxj2+W1Q35skVpWJAxg+ph6qZc0SLcZSGsIvUIdXNasJVtWza/zn2UemhWstXhDi5O5vk8Jiva+nttAwsSjMfmARbnuyPjY8Xq01p/q8vbml4mmLKLzN52CGQRd6Tf9WiyF8m14De0vj0PsDhnbM8JULDumAdZvF15ucA6Ry0n+7VoB7OaSR0Rv0znEdoi6EMYL88wViez2WTvElR+8jDOpQj9VIaU1QxlS91H2VnK6NxPH8bpTPAlqM1QXmFiGjjdrN6YTYJRI36z0n5Gjg6lrUPx+ed5WxPxahjfhvFQgP2Cg1luU/BrHViGmAJ/0QHNmFLo6xyUyeW8gKLLknmDA9KVVVqG/csOZrtKwW90YOkqBf6KA5quUuibHDQ082vB2N+8UH7V22WLsy5EKpOZulndeCm4VY1WLL/uFCOjVhV7gCvYymebsoyLHQIezubLFmVkQK3+QPYaUPbyZYtCh4DKzASmxyxStabOG+DJA/tr2Q11wZRtbYXLblPcSNl2BOngz20Vxtx4P1nFR20FkRX8wZPqL2zRujCUP2bLLbZD/IRw+BxpdVL94xzY9F8lFhTD0udtVZ5xW1VR/9FV7Q5HA9d0fTqRX3N9wdY4tswUAv1Pc1CrBIC/aMGGjKEfRqMdhPMlC082fJqomvpxDmsA27iz0zi6V6b+PJP+ExZsfr7bUH9gS45nN1P09D5vbzhm0JF6d0H9oWzySeH9cy0MF+gIR5uZaqm/4p49HKPb6/091lJ/KgvsEx4K5G6F5bhtvPwfkwVpL2hDuapIK16cVazSz5nMzmH6flxnpIwv8RmtfjYH69CK2+ZX5UCV7OL55zTBR8ZnsO7Gs8ywWngL0fRcFJpbGaXVb3IKIcJofBeD3yaakoHkV8gr6rcyXonxyS3z57V6p2axJJe0HapUR/1OrisJQU0OZJbfnces9ynwn7FJv6spJDW5EbxHgkRc65gyuyxTO+rL1eN7cx2E5gFuiJLNSubRrhiZP8tYrWakY/U2X382qzJTgYRMoFG921f/S9ubGuOKv8jTH3JliWTiDdnrnBd7+m8S2UhwARrq5R6Xmiks4MAP5L9nkBojNXEB9SpP/XMGN63ZetmH/0cGpb2FfTWDldE6Jsuwyr7q6f+T1YlLlt53vNJT/zdXxTDVqz31P7x+GpSOMcz6v3l7qAduoziIMVZZP9cnFnDoY01H1X/TBtpFX5yxWFb/k3kxx5ZLvER7uybs9aDVmyxOOFAv8dRHvTGL4ND7uLdp9RWYH0Tcfm6frbHJHeBfqlf56oe8ET4tintuGN1vcD/kc6NjmHOuKh6wRr7OBS8jMBlauhv9HLfFg2jSQoW2WGpEx9SbZXXv7RtyH/TVf0ja0k1MTFGW3BcL6p+8+008Wp7ncehHiJH6gKdelgOX7bc/Fpl2C6xYCYQHW7NplHwa5P2e+klXX+5vc2oqQTBmltRbPKbU1lTH+wez9KL0Jb76eVch2zzXgizE1zjIxuQcVsyo1fs89e+xRqcNPMT2nxW5M+pfQkSyQBCDY4P7e4tmmoPyBUeuHs36AxHFS331AgcLzokMOYnoH3GQFp4Fu8uFejQ+sAb/lb7+UVdpmBftaTCHRoNe4auX+UYJ2pP7E5Mdq096eMcGjLE72BvP1fymraGBVTkcRY+YhAFa9NOyjRnwbxGsdAsceybnDyZ+Z2geNsgs/feL6lssOU5b+5wZE6R/9mKpCfcjjPm0MRFVWlE/7JsHZtjpD2n1vy1KRyCm2Ye1+j85GHEu9lj1AncGivb2CYFJ0NFddfyoPxhK2GOP7hFpdYDx/8/cUsiJrz2ZzCh+0RUTWdDqS9xDm1Y1UyNvBIxU/9lTX06qHEGz4X3VU/81gdsmrf5BjJH9mqe+gn60WE2VoawDmfhvWNlwqg/GB3trWAu0Ub3aV//bGmQqZKhJxWt89YNEzNgJUfQjJmNdmGf0zadVxixyqB7PSrZ6VZab3dmCNBx24iKgRS5HJlrMJJrV27RvTS6/GGrRgxgLWsXYTc3rXIzTdfMQi1bbGzKe2pAElOtJXMlW12eobAclOctuAMJD8mWL0txi+c19jOgx6lGHYRb1bpYVGpb3JvEyH30x1KLfQ4xhQOzffL2H/tQT1RMOgSzis6wQQmIbwGL2Ef1t8yCLh94RBDOTEIsb8zT1xHmIRdsaGQWRyHasvqb1t+fKFmPbvrsWHSAIr27JirZ+sIOaofnxWaJMZg6ZqvgioEXGDpq+J2vMgVbsPGnRIpyzY1lF6lYvkvZg3y/RSxbl17V+kUZyRjdFC6h7iY6NG5N99OBe9QtsInI0CvdYWruIhkl9rcMjZhITsNhSb9C2x44IJw431yUDwV9ziEwU87RNTDc0Nv972J62MxjcQ+Q3uM7k4tU4qdNonCyuFTZCSyU15c/31Lt03z1ZeYGn/iDZJm00WMA1MwObbpMsqvfpMW0JyFE06/4rWv2hifWODr3T+4JW708qxFsRa5cgwOUfJXWZdKsiRUYiCF/U6gMXY5Sy13Bf1uqPDQLKYQzafeovjSz6ODZTLphEju7WTA5gpTFOrEyAbMmfsv56GZp0idxkPk6qv80IyBWVUHgQAp/WZ6MLROrOnEGy7/Vxg89NcD8D2Ztau1NCucj7H7RwKrspUZzd1WhnMsVNJRAoA7xP/2d3lVHDi4jVCz39X/SM6ZbAnkhevc5X/5UJgdHdJhcdrFMYxXGZYBeJcpKHkR/GCYln2bnhhQTBtqKBIfABH6+GmOVuPcIAG9BrCuqlHkrBPMssw57TJLacn/biIXsEx7vkwqDVH0cjGe6rvf42IzGBso1OvSbL4z0FfASJ3LWxOOq9BfVrOaSae8nwVu+coAAx3b+1oN6WQspYnYM9Ria+9z73Y+o30jo50q5eCPEAqPmox2VGUiMwKnGcC/qdeSib4ge0+u0U1I6IKKDLRhlfVyDqmdQIK+ZaK1ZvL6jfSeEdZnncwFTA+KdTaLg92QfznQX992w1bMkXUJHz6uOe+rxn3imE5saIRa+ez2W0e9r4Nk/9uL+FjjEtmwklmBwIk//LO1QD+MsFLnq4SGJ9WpsRnGdjGUgtE/CD/hSzkaCfQt1X1PN8scmTnZ2QGTyIRVKfLKj/5MEC7ZKlJuDPeuqPHDjxqAT8BY9p3xuyMwuipaIeKKg/ho/czTTdf9BDg9jQ8T7f6qk/QQ4cB3G7dnAm1AcK6i89q6dok1FpxvOARkTbYoPaNq6dGcMPFXCpphZqnYQV9TfeYLJNiJ1Iep72Bwvqb6HNhRCTkH++EeMp689ab6cE2XPW5+Hezgrnc0Y1S7PZdLhFWClWHyuofzSjMPNphvKpgvov+Nd7uF3p9zZ+AIclAbnvazxXq/+JRNAnLsViemIeFXcO/iDa6R+MZnMVjPw+XORpHsb/zV6o3uPhyLYvWeV5s+GMAa8oljxmOr3a9DYZYXZE8Pw+m+Y+RVjQewyoX5vIR2iUx8nGTJZfF6gIBQJqWd7lKv7XKnVDecWhO811efoh8F4C9Or202J+t+FyBYcmxV4KLZpvX68126ftk5QFU14tlU85wKIBmAd+S7jEOODGp7dHAm+BSSUCNMRhIrCodWwsawbI/5gWH3ItxUZOjKwALMw1sdDiMG7aZra8YPutuK1s7rzjMblYKM7u8h4Dc282ALJe7oWjrI3sdx8f9LSerwyouQCps0bTsveWyfKsuPWV0fgwNA7VBlRBxB9jUuz7B/g5l8MRY5kaIYvxEU/5m3MQ9ch6NZS3PMhbHX5gp+VTw+tt+TR39s7Ny4DVRsW+WPOTp3rJe7mCfe2WtSpagHsdl7ykl69e56D2GdriPDB5grY0D07fqi1vVsPqak2Uyz4DrJQ68pxpJXk3eDR9xXcs/byydGWY6B0e8/F5HNP7RUgnMiTLx6VpXXYR2qXJXb7abFcASIepCK9wQNcyhV/p4KbHFHqVg9oOUvDV5st4jU5PPo8UtDvVQPq7xoqy3OzK89jcLF1br2YPNa+T15hJ4XqpSQV5g1SlpYeY94rps8obTTF5vniTKRk2OtVmQ7q/OXv3+FBT655gPqx2+JHlI+Q9WtbRoxLdlQ083d2zVfKx3CrJowTUs1TSxQCU5cs+mq4XwQZ0n/LK5OwOTcMc7U9Ae64uoEKIsqpnOGZ76l0FoeeWckeoctpnM+Jsn99LM5KfguSD4gUgCfnhAK6yV8gXkRY3DvQc2c9cRNbhBCBkJGOAmEmvZLb1lusANJWR+hykLqoPqMzI7LsK4cyiVmfRnnFhlOfeA6rVmv1svCOW9yGyzr6YdparD6jMOhMgAYSkpwSPfWHcN16XfRf7eTA4MWPDG8yYmVd/RtCWMzS79pc9VThHPMQUvuKp4t5BzF4tpX/y1IIl3UnRPT2TfC0an+GaARtrETYTCh6e+wxflI0gq62nJNkwJngpFWEuhqlZB2r1GFSvkg9qpHEQkZp9LdmxH8DTDi8fFNHJLy7m5O8QLUEXJRFyEFH3mJWPCude5rSjHeUVx8jIbgawj0sCr6yD50z2tobRWt9+KKBhxetv55s30obfQKT55/7F8qXxVCEz1ipvrLX8rKhdrbCf9ELzhwp6sAHz1cZG0K5iXaq1mrUptsKf6yF7YqS8QjIEtxif55tdcNMU2BL9UXSmv33B7e6dKHulUpijWRHhLFshj+3wiS0h6/7I0oLw4deJhX0zR655VdoWZzKpz/fVQl5Ai/tTefnGGcrQigmyqaU8l8tzvFiw50twxuaxXTNYt4VXafsLHFtC2ecad4QB+dGa+YiWETuJTn4yhojZDhrloCe/4wIw37p1iFH0meUqJw9TXNF66A578ntIB32hr71qDjxPBBoz4elFvpJTMHL7JsgdwVSePBhmWRhvQ8EvPqV8zV341dZdC+TojKNhP5PqvreqzO/pSLUMuxdUUCX70wqv1GET3AgqaBUo8vXYsGf/folU49F02SKlp24e7t5xm6BwGgZRvvtyLku22yiXOgFZ+yRaNjAKnm2WGay5H9zY/CaRAdTIgFzsuWH1zj9tSjIdBNzSMLUVzWKpLBsrnagwEN+sY6Y1m98KW78Th2+AvTCo4ZiYWuelkyvCqkjKeb/5zrik5OQ1mUoUAT338LJNBtZnaCSeLVk3RCOZDqopq95y6OFErAfi9jRwE90X01W7Wk7/0oibwnyfMkDW374DOUnk+xuCYTp4OQtxuG34KVjOOAv4uhgbtqNB08CoZQl27CMj1s/iLnoGcAkTx0bJvfRkj+2S6dSy+vAe5u5r1GWde1pBWG5XzTfuVLklE67dp9+8cijm1T9Z2iylOAWJdJAWT4ZmfhaM13yXgBZb93Q2DHBpXczzcmjAR8LTVeMYr5xqylt8ckfb3VAgx1ZL5iOGxzl2ySeVjdxOVOX0QdwwyAW7Mab2kX1SWUHjkkp2MxJjjUtE4+RTzw/6XpeJ3ndA5GTNqax4T6a3RtRICGNwR2TRWqhtHRB8sNdsr8fsDtmr8JZE+smbTPlJRNQ4IMQ0pVRYzRqogvFgrXJ0G1lBp8cMtrJezX5r0Lc8jO1JxzsyImvIvAmjEsthEetbVEcuwQIbssRb0nACZ3QG+GZfLQ/mQW9Br+ZBIlGMzFt9VRhM7h+z2eIQpp0V0cEYWUTj7QsZdEHEg5ins6aN0hbVorzGn8aG/+ZOjXp0bqmS7UhSYQem5xkQnrTUmrGqolEGxKGcuBLx6FSACcQzPthd3aYxTv5GUKKaXCG8lDRU8r1zVTOfJNRt82VPPIx5NM9WK1uNp5KvdtLCutftZ8pBUcHdaT77hbdgJoFbrziUfVMzWzR+O2pkK2L1Ll/P/6gwZmJxbOUTVXsgOwOKgIsp5cBQ8RaHWQ8dwNzos2+loLmre9Q2rcjd3PtsVZ0sYIsLeVG8tkgcHQ2QBuLl4YTRbmFPoikbXAkAoryY8rbpDh8d46oy1wz8fWzs5cmYMBNE+qOS4UJ23b7LIQSiDg5BPIXsx/glg6K8mzI2xAizNBFnBuuAqjbxkFNIfpTcoLO7G5y7VSHDEe7tgHKjDM097KGHCvKjarmpp96QactPkhOIfXaxJCGd0SXD+ssXXw8cyTrEN+DWnsjX9pQ4J52tWH7XuC2XerWsj7J+pn2L4Fbcljo2MzJOJG5EcnwetinmTb2+oE6YCXPCfMBTl0HOdd+m95mNpyUcc5GHiRx3p6PquBHdz8EL0BXzpNU7fHXlPMisbmbvKtNZeHa435mIiJHv1Slo9UJpz5wrltU1iNDOeUwzfW1azHTknb6+7hCrVgo5Xq8/hFBNVP1clHp9Eq+/YZ7bEExzYH7IPDw9Nt84Dwf/lHHsbkqVMwRDIpUt86KDsJXb0A8FK/cTXvF63GqrROZhjiqeCu5JfsnGBnGqgU+T+RRihvTdq827e7iJ5L1WeAeJz47awdEg/kGpAFeOKkvqbHRB9vlYFTXLw0BdX+/B6mzAtH107HkH5jd85scHDNarIyV4tJaTrvJ/HaXZuqdX6YqNS9xAiyw2SBrrPVuOBl00uTqArpeCVi+kQH+H8PUpI8RCbDt6n89ZNUG1iFVkeUJMjIMmBCx8MWCftVc53jE3hni63TW5NF7sz5LXzbaicL+8REDnirs2pI0Ni4RQB4lQv5jiV+WltHsSvbTDukUr8zDx3s6xWuTu8Ai3vmeGqKvsb5RXEHxu4o+aHjatBTcCOIbGuHcsnn9gRgVUDttoUeiCsALiQAJiNnZAfo15w1akD2u8pQMzNp0MWjybhDXi8HlWCpccX/ES41uYxzzt5HZYQIkUlzZhR+4E8Zm2++Nz/Viu3SL3YpWtZ59r15Fjm0XomXIlkgVrItq20brVwkJd/kIP2+W2jUw/QWlbb4jWJtt9M54t5eXAIZsnq91+Im5wmKKltGFeF7UxrDRf5CzPHcZZIg7gECDYN+sXquEh22LePkHF3RGnptfrMPEsLfzwcywouXcwPxsi5/rVu5MZVxozV/RiDoEun9iAtLGdzeLElhzWNyPAPFsDVE1M3WTs6gqu2SqGf58z7aw6kJ8VFdM+w8yilUxD27v53S8O9RrOJbrYmezvTXDxtrklEI2EH2xdzhoCQ+HmYYYSqjd1l4wJXCwqPjbnskswIZV5Rmzs/1/PCKSsRTnEjNAFH3Y2WRKTUNyqMneDZyybXtGiNywaZIdxC+nTpWhpWghFkYH46JGEQWQ/I9ClC33Ds7yYNm5ELOsVXcJLYw9iWgah9Iid3cKPcuxXpB83zURfCSh00q0rdTOxvdlVkmoHBJHMbZRGFMbdF862iF/Z0WCDJ7grprPP4EiPo/vTgneRMlREGXxyidoAQWmG8YbFrI4b0f2HhoD2DFLmPitBnySwMRNByzW+UF2sZuBE1Ig5lpLpRR/uNmEvnKMDd3FCJwcumF87qy+xX4i1LZtljbrE86vf2Qu3GswvZGSKXdmcsMKkBaKLkzytmdcBfug3bS/lMGnTNkPcwrgCFazmtDwZi8+N4lR3XBsUjWGUo9GI2HVVIAsphLO5gSzOz2nLDFX58q14rhjMiVGVuA2xWcIg9XqVawUpePNNWQvmYQ+S2TdUEJi8pD3DnMovF9ghE2XF+IYyOUSk5aef2IDYMJZI3PxIPVE6S119DqW6GBxChlvyL3O2zJMvoPZYzZS+vzWvh8lSqHKelS93erHBT62snwzN/u6b6bq4a+HoEoyGKUeOqGMiVv/EgWuOSWP8iYVnmwt3pwm1NZGlJck6WKBRKq9YfcXXi9QRAbOfiiEEiCJgchA4+x1bWceWvU05V2WBMjnsyNkhGpQJ1KABNNmI8CW3ov6MKWX9BxIJNEE9tcq9VlrSXfwBOhWGvIfH9AzPiHMRzU+IwqnnXFGC2xL9eRZLXLZte1Ipyl5s9uwPs5r34DNSH/FVthjUfXppskVH5xgnxm55EOEnRA1L8wi2APNgttBYfdTXK1bEybbJnZUvH9h1tr5pJzlWH/f1Mbqawu2KOm7mLMHZsIaAlXBiDt66xEZH8/vk/OJQEvIVkSwm9fJ9SpnSxOqffX3Fdm6Wvsq55dzcfHzNV1ex7E9Pib4hu6vl09lrnB5CZhsl0uqanElKTFusPu/ra2dMsDNFX/DVdVIMUyl+0VfXp5NSMltHyETdsDPZPoib4w7Iri2HkN10/r/uc/RIhhdmO1rJUK0Ix5/09U3nhpfY1j7t65u3R0OmBzGtqIearqAiL0LQs/vUwy5FWfbKHPVP+frhqcARgzQORpE45LYrTAVU7UTq/ngyviBK1E1Axmsih73E6nAAiy1zeAAhmkNorr+/e9dBNL2QizbPnTcaHUJAXJdyM27+fp5u1brrJiiEizZHAasSs5OL/9ygV/rk9LWPAcOcbCXUn1tQvtRa7uN04j29NULPTeTQWR3WkZ0TfEVGzywSwjBLx/raMonuDm0JJ8HeR2HKZsDb0Z61/fYqDM3lZADcFP0ZOZHPoirQ0aq4LEW8UblGWySghtq3WVfIexAC7YDNwPb2TePFGFBXvhrJoaSe3cNhqTIWaCAKDhKdSwNyWIBvTpmtP5xN9jlqQCJ1XqaNyR7nGjt+b87KDOOyrARCnNKCQI1rYRmaxx1nVF5MUKdsFHN1OukPtmGKG8457O15ub+AFjN4naoXMn37ST/qJQVsdmIXWnmwvfRULyqohTqEkYXyHilY6I3Od+VhHkzGOJtOK9S7PW3UOil/g3D7UGgLQ5dcBv/iq4cZDVIv1HpBcqv9GFtlt7Ob5f6uP3JWc9G+A1QFtRRLHDXE97Q1y0m5I6w+Qx1JymWcCToz4GeqFfOuDraL6qjJOo0lEGSKa+nZ+rjtuNW/MELUAE7Ec4tGLqafV9CX5QafLonnF9TlO1DatKdWhnGFoV5F0VhlbFcXmgezWEQx3h5h8YlTyR6JLlxpEFuI3Viaq9AUYmvY0xFb66g7Hoi12j6rXl7Q1xhQO8qBrt1K9CJWLy3o66bRtjWdYfR9BxEa5wLsi+p608/qFDXcxT0nirAGw3boN5i6gDASdwMit7d56iH7coC4MN4uMY8YI9BuTL9JwS1rZM5Y8rnpm/BzZxfkMWnVXorWYIkRPHR7NNzfkh+Opca9HZ3h31h9qaAfDndI0lmQ2E7/TxXUI/C/2tE+Jh0hle1cQuyRwSXQ7fnLTcYhe3S4Jr2190TjLCzFzmm0hcXqFQVdkC/OluQJf65rjrdnGDhTlXxuDZKV4c5OefdAIkQrGSkshdbWn1xQ3sB+c69BNYsGH8O4zFWhVLB5p9lFW6oySJYRKsnwF7aFelwyPydGMJ1d9ERAdLG4ReBTFA1JbQxZeNPt3Qt0oZf2L4YtXwp5nQHJTB7ZvzR8RcaXLAxvYcwQkhFC0m4HspgZo5NDrF5Z0L4UV6U/QStsSa5lemjMUyjuXwq60E7eGxudVJ7744eVHonZ4FTyV8R1ilqR5egRRyO/YWMzeppUGjqvLuBZ9u0WLtgGqFZWuRQPSrJZqrVasyRbqg478mcIyXmlWrVkrvXMtSkZ+exkOwjd31sv1s2l70L+wcKifdAkDxUoLck9XfLGYbna2ISiYB1JWGlH9vifsbT0zVlKObF9F/N9L8z1vZjveynpsDS2F3xcmT3IY4IV5e0w5a7EwYe7nH4sFxMF4yBb+LNUMTq/P8VKs7Qt6I3sJXvuCYB6c4GN2D3ltZAHuOLaYWWHYrEt6C0FtSwdy+gt5FVE+4OUbhrVV1fKq7/0mtv9aWxblL+LK3/g1L4xs/eE5uq9ZV6j+ZWq6Au5QnBXt1ST+Sw2mh35G+Pmo4ALXPyHvQ43/BQW00KPe/IEZWm9HaCCbVNBeTlfziMesX8gbsVM0VF6ITlmJ6+6Jtwcp1XD/m3kE/BrPg7YqzWbp8xLhssagfvM7uVVuGh3OxuCeUUmEZQ8SgupeN5QUPK7DwcuTc8cyMZrLgpSpa8nM2Pi3syyvc8FJ1sY4ODCGXis3lTIHtOtJfNGayKJ+MWcdWip+/Ga6IrkUyoym7iahozcp+gBAKPcrwULJuc1/nV4LEnTMDJv82k9FAupx9Y24qHNPbNJ8YXIpvTDDZlmyGa7fkeO8QwhoBYPWD4JJI4BxM/lcOYGYB54K3WN/PXGkIB+IDpj3s2Y6wZ7F01gYf4Rp7xy6GxkjxX9dbNCC0JFXi8JTtF8+dUUKS2EG/IH5V3JrldXWEJpmuZzmss210tswRH70cu0vOLKiWE4mj2udN+3dPbAfuAyfaV5whTdy8vLatX8O8vLL3qIeYU8LDHPF3LAKzNgekV/lSGLahOLYX3KoK8uI3J8iln/fIvrvh15K6n804F891mxYNpN5gOBDpuC7dnXGv3RJnse5xGnj7huWp5TyA9HVD25nC61O9WyGZ0OEQIdkvUapU0Sv+Q+oV3YkD+8Vdy4jX8XNm7n38WNO/h3aUP+2Nbyxp38e2RDogYyXyvpzfjRtSaX5ZI7hvXByoRkjwvOiQ2BXsZWQHL53MX6FeaR1ZVd+feqetDokl5dk78+eE1FYNdWOvx7XUVGfP1adb1raNxArlxquQE8pM6JjvRGTBfJTWLAbw7q/PtQUQYj+4eFdRSLzMOFq0cw40LnkXfxz6Mqa9L60aXVVWHzMe6JymPb0vPj2jKAb3HbwuPlb2CTfmsZO0T6BCaO5NvCkvnDmE88tSp8fjsGl+SW0AjoVhnMbQK4XQZ3h/sji09aNX9j8c7ViszMk8OWsZRPMSw89bRJntaqljt2wN8RNrtt83XJp1frMp7vJI4jI3xGrbQayLi+q9pomb/B/czVbqdj5FKy75bIrQr/7mEDC7STTF6FvJVhIKuphJkmv9bsdiytda4Bsd1mJjfq4Ahb1bVqUKvYL9afrAXr9n3YKdk1ZCg10eW2/ERJPSvRu4a9Y7yj1GqZiz7b582rpQYmgVyZqGOrFjD/8CDCrzjDUW2sCYHAjXbNzfQ6KitfWLd0Noho2Vw1DEpt87dJT+bfdh3L9P6hrPtuvZEq7SOJDRAOcJQeVanKE/Sm4eExley7649NJPYEaWmX87fZmXiik+stkqJWwueteGDCxW1sadLrk1D9/Of8n9xuniZ5CklC+Knkhbbh6mkdeV9H5hkdvJtVo2SldF51eSMon+Lqlrwnn/MuB0a1faySqFYBpruOk2KSz7VZSGBii0W8i6kaLCUTbvtcTjCOhOU2t8YWumI+iyq542Gr2kj5OgHXJJeToM1GK68QtbK9XtlpB4H0Sv4q5nu1aeFXywhIrxH5WdC1wiDpdZLaPq83nCTCuoEuBJ3sQ4Qs6Y2SOlI3idRwaMiulrjqFrxTtabMVq1eat/VNS3q9rEiOfSsbsbTNNiVaskit9LcXVaxLHtH7R05ucvmbNnDMpP0cDclj6iwBB3s0UG9tYGRlR4ftxaYCPu3YMjsCn886yhom78D/K3VRggbttW3J8vudtFns3tQuDNMDNt3YGyYHPuC7umYHK50kuJ30lLE/V0yPtJnJkeCtmgaWty7lUKYFG6j0EkKt1PoJoU7KGwmhSdRMKoqhTsp3C0Fw+M96RZwr2wmduq+O9tqvkfWr1vaFL9XpjHoOVndh0OwbqxKr37oN3KeHsSDsvzO2nw2U8sZyJxNrQcW4auIJ/N+PJl8VQAcHyb90O2OwOUkKnGr+oSD15C41eEYgF8Wt73lfhCnPPcnF1T2Jxco6ArRT/Ea55F97GGpLNbjEn+pgZJXvuQP9AghWgupzK9UOk37uxTK2mQEIjUAvBLmNf2ZXXY8Kc4dT2Lq3Ztj/L9DB5Th2OWLhAsNYmk67TtCK7o414N4e8bvlL/akZ60UD9mn4xO/CqvaqbUtzXJK7rCRbRwKWdC7iM4uudMjx/GlZxDM7+szGb148zqRfUBlUyt10+ADNPR+yj0NvqEhHI/1EzQE03Yzderd3kXt8gx8AkYCAj7GD/XxSKjpEwDuar4DDjxuL8f73LdoD7NQSJIMRwYijsSzrLIWbUQoC426WfzVfRjZPU5ZDXq2x/4ZnQ7UpU/JeNyh7ioQcfYSN3FiJB6aXzbD+8Jrf0tYOI7vVJLPJBis2FeCTFrlBZkyw5LmwH5xZLUL4VWSVucRCJONX1kLbMNdaIMICjpyDwVN0UdzH0UkLll0w+owAsw3oCeI2jlWSBeNpIfAJxQeuY+nGFKXHvZUgPJMXyJyMPA5wnUlh8kcAY1GymRiR5jDiQ447HEcyHFpg1KbSnfBPWqEnGRoNyDRyALyWmnOmhyprd5uSCSn8PDavZrKQoc/lFGW8zhvF8jOInJyflwU+qF65L82QNdnOGpo8Nj6Y5pJrota3Wvf56kMIjML183jYIvq+Klqdhq7TlS50yRe9kU251J01//7BO95IJtuG9uEu9PHt74Q24XiHYzauxDNNuWVzrFcxd1xY1nQS+k1NfEBJqfnEZJB4xdjthYVW+nvzccyUGaKYQLLs+IHeZoAvlKQRcPYnN6llPNtv0BPmy4PgyFtiWuvcloYCHQlKcJacGON5Re8sgGQLXgJnmLalsaGFFV12LHABtSoE0slbYuVl9neZuGCSDBVl9j+RpU9Y0ExyyHZJNRmqtULpHkXtgEPjMUqHClJR/HNPLSMUMXFK49bNtYPbeofRGOaYSax9u7XAttpjJmg2ME6qt0PXWc/QvRgsiSfx7m/v8DPAoAAIWWDXBU1RXHz337kZCQ4Ah2VxAaKEpLMGgL6oTsW0bNKviJWmtrl5q2EaURFTd+oMRAPhA2WrUjCqINm6rYlopIHdxNthQHtaAp2WqLtCoixQ3W6lAQrLX2d+4jWcZ2KsPL+b9zzz3nfz7ufWuMIz4Zml3+7JZA+Tcv/v4tF9zaeOmNl8RmnXnxrIbvXDtzxvmNMlxGiDlORsloGWuMGMeMWeX4Rfx+I+KI3wTOvv4HjdfVz0tI0BTfKSJDZKgK/llxjPQ4IrqTWDJW/E7g4ro59RWn/j/74QqHmVt0o2M3jtONM+Yl6ufPq2uouGhew20VZ9XNu7nuJgnKF7u5R6lDXF0ZOJQFYtfPv65id/v9FbFrGxLz6+dX3FCnz203yXEtItMrzFjzVUCF+ZoNKpfUz2lsqJsvMtH81w5/u0iDGgeMaZGKs1vCcb/TLodH+uaG4wl/S662pYjlUwISPIb/pDRg5Uc9HXVTOD5JjEH/4WcFvQnecXPfX6mc0yofnljQO0f0PvT58wp6X3Ah8cT40Re3F/T+4MJYaKGYAPp8tqAPBJs6qiaqfZv4ywv64BH7IPqXKgv6ouBCkhRThP7cMwv64mCTyBliitEX31TQDwk2nZLGXv2f0FnQlxzlf1dPQV96lP+rXi3ohw76b5d7nYK+7Ij/IegvCRf05cGmWGi0mBL0y6sK+mHBpn2pUhlizOd66tyZ6JvqG/Fqy+4XD/smXX3G9nO+1PTJe52+YcEZfgl0BmUo81MiDkNWJMUiZab8TsZ/2DGyWDpvaZFNtHfdpTTvxVbZcUKrHL6tVZp/zbO7jcltkxEXtcmOhja5oqVNwhvaZNVb7XJscDhOmVbTbMwiI4uNtBhpNdJmpN3IEiN3GVlq5DHGZauRbcb/ipFeLBx50DFBAxGd7iFSOjB93vwvlelF9gjcJc2PlnnnYKS+j3bGyJflJIO/O1auWDHw6JJP/3CUjUyQE0y5HL+I91FyokySKqeN4xssrRcTjm+IoBdHQUdVddTpqApGjwInRVma4g6CrmSv6/SnPjkaPO4eWToC8Oc5RIr8lmMaCz1iXxwF/alS9TXeHQSseEtIUVIHIun8uKivo2qzBY19j0BuQtTHUYjEE5VRT546oDjdWkxOT/O2MBdYHLDSl6sdjv/p0VjoRNda5GpPd3WLJ/HhgUprYaPoFg2rPlTKZOU0nkXKogCSBb4WDC4pkCWOmMnpTi9BBZn8fpeSS2QQDC4pUOt8JBY6Was+0x0EDIBLRjPdXO0h0rsMP7mIrz/1PRRPRcLxG6CZivgmp5tRPAiJZVaSwH0WNPY9AKGVEcq00tUSQRWnnRGnse8xVqqn+eKJ1YD0c/2pFZTnmoyvse8+QD7T2NdmJc7mWBCOn42PQA0WY3GyqSadL0FepfHzVGIdDPM8xS55ednIO/+z9/HEWJu2BbHQ+66Tq51gga8reRo5SbQrOdsNx4u0Fy1ELaMXq6z0xUKrLeioWgMtFJQCb2XRTH49bSyLOgpytR+48FqH6QdUbQ3Phy6mmux+9j1kJXVptYDM8dHv4n0Ge99mlk8jfk4tdE6f52U8Vut0wD/Xf9nH90fpUc9un8g1FsQTJ2O2qYaM9mJ2QyRX+wTFORzxzU7MojgRV2U8sdS1Ck4LcZ9g4TUtgm75iLiV+PLrlP/QpibykJW0YK0FsdDzZDhELXZgGuQc9BP2X5rqJ6y8x+Ng1edCrJgiPstqMaP/Y53CYoq4wKVeuxmdQZDSHPfgLaXZ78HDc1RvJxV42WX2+nh5k5dN0OvXOE/xcgC3D1lJ0e+wIFf7LSze1fn9Or39Mw7HsPUFVZRQyvUoSrB42GXUS2j6Ym+lKxnDWQVypCpOI/4bkdmJOMp1OsiL1ZR6rbKS+GstyOTTWD6gw/gSpXmSWufYsl0Vf4HMITLbTdiwy+wHovGE0To7DNqvGMqDMIxHCLcX0FMTT/wedulp7N0IqO7WcCrFyN/otraermXtDAxO8iDI5Pfp1VhpASM1lb37YVdLzz91fZn85TD0E/pmqBfrBCdRlKF43Era+zsLJqf34JUB6E99BjhEYYto3p9cXzpfzsA/y/7yaDq/zFPoVKmFCGOmW2Kh6yjMHmRPDclthUd1N2NmJbXssCAcvxVyW6YxIldAeXONtgBfEUs9FrqbFCsJ/4sIgzG+AAYroEAMNyVrSaUyjspfQQZTUUzQ0TuXDnyAmx/RgY3KbQnMFzP+q62ESrcF4XgvWzIRWrOLyAfZ0g+liVq0/axcyYtKoiiIhZ6EeT9ON6liF0Ozg5deqrBXJ7EbcAAeq62kzkssyOTnsvVdVZwD0528TGVhs0c9k/85XLxcZGNATCY/X3Ptpi321HZ3JY9lyxvTYNnLWO2sYYr5UJAHq5zc7VqRSFdyjHe2u5IXQuwekmvQE7WBq6AN7//ger7b5QI+ntjLUUSxWqkzfzXxH+Wl3VKnfJ0k9TMy1aP2uAuP39C4NXB4EcUvdZB7MV/H0wv9tOso0JraFR0Yb8teTflp9h0k3E+sxNm1FmTyMZQURWQ8pjvZchzKrXqb30VCr3vcvbJ/SlKig/sVmBUxuBcSu0S/vgvgrJfz/VbS6Z9aEAs9jcPSKE3ZDKESFH+AYUAt3sFCb/y/4/h9LdnHWLxOpT+mORtdxwPcuJoM0gP6fWMMX7YA0i/hv56S9lC8Y3XEnsG2uWZyOkU26WryvA+Xs7oHuslRlmY1idCCFRZo50XW6PR1A7Yzn1uoSdFAGSeQZC/eZg4UuEPLtw3aS1nZjKJd+/kcTFrIaS1ykV6Zq3HWzOpyLBdqC5KYL0DRSvVuVcUcXhLWc1dyrvo4GdM6Yo/CxwU6EyX0ohqLEp6RA4qdjFIllmv1ljtfozB9XlKyh08vN53mmqU8u2jhrCzloUQXZCH1MC2cmdW55BRkuYPTgEM9ODrMqfNlw/ER5GCydH2S25X8d08m7+J5Rw8pz4LE+p7ZiTpkdQ8NulFBhjuvlL3cgjQJ8gBuD3jujqC51wMcHG8JclELYqEH6Fmqh+vmbuh+3JOrXURSx2c50nPdxr6p2f7UeW5/6qws5CZhoXl4ick/7W38PnXcoU15wW3se8Vl32aWdeozUN+lig286FWyBslPg3Ref04chPYyK4ldZ4GX5T5VjHbD8TchovLlAYVeKVNQPuNSw/PY8iQvC2HXpV/UNZRshfbvFczuZfUtxuZ2bdd+Ql3Oo7fXKE/BueRO2IMiGSGzPxJXuE6yFGNcDd7tL7TuWKjNSiymWECFKPK2GqIsxXxBhC8tTQ3or6giLJgOTgBgJyvfgB3TIXIZ3psJ12olTU1ZILKBlNdHaOoWSrUXR1sgFtLB3kIOU2CXwfJcTeppwHdRaunq9Qt3Jau3a7hyOLejfQ2HK/W46FStxeE9MNzqKRr73sb8eSy4ijWJWMjHN2wi4fgGzk58m9rpzbHMSvJ/xoJc7TZC8g2Mhd7B4Uck5LVb5D8=(/figma)--&gt;&quot;&gt;&lt;/span&gt;&lt;span style=&quot;&quot;&gt;Filtrer par pays&lt;/span&gt;" style="text;html=1;strokeColor=none;fillColor=none;align=center;verticalAlign=middle;whiteSpace=wrap;rounded=0;" parent="1" vertex="1">
                    <mxGeometry x="90" y="230" width="110" height="30" as="geometry"/>
                </mxCell>
                <mxCell id="Q4VQ6FfQypADlnkams-a-23" value="" style="rounded=0;whiteSpace=wrap;html=1;" parent="1" vertex="1">
                    <mxGeometry x="45" y="980" width="420" height="60" as="geometry"/>
                </mxCell>
                <mxCell id="Q4VQ6FfQypADlnkams-a-24" value="NewsLetter" style="text;html=1;strokeColor=none;fillColor=none;align=center;verticalAlign=middle;whiteSpace=wrap;rounded=0;" parent="1" vertex="1">
                    <mxGeometry x="52" y="980" width="60" height="30" as="geometry"/>
                </mxCell>
                <mxCell id="Q4VQ6FfQypADlnkams-a-29" value="" style="rounded=1;whiteSpace=wrap;html=1;" parent="1" vertex="1">
                    <mxGeometry x="152" y="995" width="160" height="30" as="geometry"/>
                </mxCell>
                <mxCell id="Q4VQ6FfQypADlnkams-a-30" value="Input" style="text;html=1;strokeColor=none;fillColor=none;align=center;verticalAlign=middle;whiteSpace=wrap;rounded=0;" parent="1" vertex="1">
                    <mxGeometry x="195" y="995" width="60" height="30" as="geometry"/>
                </mxCell>
                <mxCell id="Q4VQ6FfQypADlnkams-a-31" value="" style="rounded=1;whiteSpace=wrap;html=1;" parent="1" vertex="1">
                    <mxGeometry x="329.5" y="1000" width="55" height="20" as="geometry"/>
                </mxCell>
                <mxCell id="Q4VQ6FfQypADlnkams-a-32" value="Bouton" style="text;html=1;strokeColor=none;fillColor=none;align=center;verticalAlign=middle;whiteSpace=wrap;rounded=0;" parent="1" vertex="1">
                    <mxGeometry x="327" y="995" width="60" height="30" as="geometry"/>
                </mxCell>
                <mxCell id="Q4VQ6FfQypADlnkams-a-36" value="Distination8" style="rounded=0;whiteSpace=wrap;html=1;" parent="1" vertex="1">
                    <mxGeometry x="267" y="593" width="119" height="77" as="geometry"/>
                </mxCell>
                <mxCell id="Q4VQ6FfQypADlnkams-a-37" value="Distination7" style="rounded=0;whiteSpace=wrap;html=1;" parent="1" vertex="1">
                    <mxGeometry x="70" y="590" width="130" height="80" as="geometry"/>
                </mxCell>
                <mxCell id="Q4VQ6FfQypADlnkams-a-38" value="carte afrique" style="rounded=0;whiteSpace=wrap;html=1;" parent="1" vertex="1">
                    <mxGeometry x="110" y="123.5" width="70" height="36.5" as="geometry"/>
                </mxCell>
                <mxCell id="Q4VQ6FfQypADlnkams-a-39" value="" style="rounded=0;whiteSpace=wrap;html=1;" parent="1" vertex="1">
                    <mxGeometry x="110" y="174.5" width="70" height="36.5" as="geometry"/>
                </mxCell>
                <mxCell id="Q4VQ6FfQypADlnkams-a-40" value="" style="rounded=0;whiteSpace=wrap;html=1;" parent="1" vertex="1">
                    <mxGeometry x="196" y="123" width="70" height="36.5" as="geometry"/>
                </mxCell>
                <mxCell id="Q4VQ6FfQypADlnkams-a-41" value="" style="rounded=0;whiteSpace=wrap;html=1;" parent="1" vertex="1">
                    <mxGeometry x="197" y="174.5" width="70" height="36.5" as="geometry"/>
                </mxCell>
                <mxCell id="Q4VQ6FfQypADlnkams-a-42" value="" style="rounded=0;whiteSpace=wrap;html=1;" parent="1" vertex="1">
                    <mxGeometry x="281" y="174.5" width="70" height="36.5" as="geometry"/>
                </mxCell>
                <mxCell id="Q4VQ6FfQypADlnkams-a-43" value="" style="rounded=0;whiteSpace=wrap;html=1;" parent="1" vertex="1">
                    <mxGeometry x="365" y="176.5" width="70" height="36.5" as="geometry"/>
                </mxCell>
                <mxCell id="Q4VQ6FfQypADlnkams-a-44" value="" style="rounded=0;whiteSpace=wrap;html=1;" parent="1" vertex="1">
                    <mxGeometry x="278" y="123" width="70" height="36.5" as="geometry"/>
                </mxCell>
                <mxCell id="Q4VQ6FfQypADlnkams-a-45" value="" style="rounded=0;whiteSpace=wrap;html=1;" parent="1" vertex="1">
                    <mxGeometry x="362.5" y="124" width="70" height="36.5" as="geometry"/>
                </mxCell>
                <mxCell id="FFqWoK7R1Q5WpI-kmN7u-1" value="Input" style="rounded=1;whiteSpace=wrap;html=1;" parent="1" vertex="1">
                    <mxGeometry x="197" y="235" width="130" height="20" as="geometry"/>
                </mxCell>
                <mxCell id="FFqWoK7R1Q5WpI-kmN7u-3" value="Info distination1" style="text;html=1;strokeColor=none;fillColor=none;align=center;verticalAlign=middle;whiteSpace=wrap;rounded=0;" parent="1" vertex="1">
                    <mxGeometry x="206" y="300" width="60" height="30" as="geometry"/>
                </mxCell>
                <mxCell id="FFqWoK7R1Q5WpI-kmN7u-4" value="Info distination2" style="text;html=1;strokeColor=none;fillColor=none;align=center;verticalAlign=middle;whiteSpace=wrap;rounded=0;" parent="1" vertex="1">
                    <mxGeometry x="388" y="310" width="60" height="30" as="geometry"/>
                </mxCell>
                <mxCell id="FFqWoK7R1Q5WpI-kmN7u-5" value="Info distination3" style="text;html=1;strokeColor=none;fillColor=none;align=center;verticalAlign=middle;whiteSpace=wrap;rounded=0;" parent="1" vertex="1">
                    <mxGeometry x="201" y="400" width="60" height="30" as="geometry"/>
                </mxCell>
                <mxCell id="FFqWoK7R1Q5WpI-kmN7u-6" value="Info distination4" style="text;html=1;strokeColor=none;fillColor=none;align=center;verticalAlign=middle;whiteSpace=wrap;rounded=0;" parent="1" vertex="1">
                    <mxGeometry x="388" y="400" width="60" height="30" as="geometry"/>
                </mxCell>
                <mxCell id="FFqWoK7R1Q5WpI-kmN7u-7" value="Info distination5" style="text;html=1;strokeColor=none;fillColor=none;align=center;verticalAlign=middle;whiteSpace=wrap;rounded=0;" parent="1" vertex="1">
                    <mxGeometry x="207" y="494" width="60" height="30" as="geometry"/>
                </mxCell>
                <mxCell id="FFqWoK7R1Q5WpI-kmN7u-8" value="Info distination6" style="text;html=1;strokeColor=none;fillColor=none;align=center;verticalAlign=middle;whiteSpace=wrap;rounded=0;" parent="1" vertex="1">
                    <mxGeometry x="390" y="500" width="60" height="30" as="geometry"/>
                </mxCell>
                <mxCell id="FFqWoK7R1Q5WpI-kmN7u-9" value="Info distination7" style="text;html=1;strokeColor=none;fillColor=none;align=center;verticalAlign=middle;whiteSpace=wrap;rounded=0;" parent="1" vertex="1">
                    <mxGeometry x="202" y="593" width="60" height="30" as="geometry"/>
                </mxCell>
                <mxCell id="FFqWoK7R1Q5WpI-kmN7u-10" value="Info distination8" style="text;html=1;strokeColor=none;fillColor=none;align=center;verticalAlign=middle;whiteSpace=wrap;rounded=0;" parent="1" vertex="1">
                    <mxGeometry x="388" y="593" width="60" height="30" as="geometry"/>
                </mxCell>
                <mxCell id="FFqWoK7R1Q5WpI-kmN7u-11" value="Distination9" style="rounded=0;whiteSpace=wrap;html=1;" parent="1" vertex="1">
                    <mxGeometry x="70" y="690" width="130" height="77" as="geometry"/>
                </mxCell>
                <mxCell id="FFqWoK7R1Q5WpI-kmN7u-12" value="Distination10" style="rounded=0;whiteSpace=wrap;html=1;" parent="1" vertex="1">
                    <mxGeometry x="267.5" y="690" width="119" height="77" as="geometry"/>
                </mxCell>
                <mxCell id="FFqWoK7R1Q5WpI-kmN7u-13" value="Distination12" style="rounded=0;whiteSpace=wrap;html=1;" parent="1" vertex="1">
                    <mxGeometry x="269" y="790" width="119" height="77" as="geometry"/>
                </mxCell>
                <mxCell id="FFqWoK7R1Q5WpI-kmN7u-14" value="Distination11" style="rounded=0;whiteSpace=wrap;html=1;" parent="1" vertex="1">
                    <mxGeometry x="70" y="790" width="130" height="77" as="geometry"/>
                </mxCell>
                <mxCell id="FFqWoK7R1Q5WpI-kmN7u-15" value="Info distination9" style="text;html=1;strokeColor=none;fillColor=none;align=center;verticalAlign=middle;whiteSpace=wrap;rounded=0;" parent="1" vertex="1">
                    <mxGeometry x="202" y="690" width="60" height="30" as="geometry"/>
                </mxCell>
                <mxCell id="FFqWoK7R1Q5WpI-kmN7u-17" value="Info distination10" style="text;html=1;strokeColor=none;fillColor=none;align=center;verticalAlign=middle;whiteSpace=wrap;rounded=0;" parent="1" vertex="1">
                    <mxGeometry x="390" y="690" width="60" height="30" as="geometry"/>
                </mxCell>
                <mxCell id="FFqWoK7R1Q5WpI-kmN7u-18" value="Info distination11" style="text;html=1;strokeColor=none;fillColor=none;align=center;verticalAlign=middle;whiteSpace=wrap;rounded=0;" parent="1" vertex="1">
                    <mxGeometry x="201" y="790" width="60" height="30" as="geometry"/>
                </mxCell>
                <mxCell id="FFqWoK7R1Q5WpI-kmN7u-19" value="Info distination12" style="text;html=1;strokeColor=none;fillColor=none;align=center;verticalAlign=middle;whiteSpace=wrap;rounded=0;" parent="1" vertex="1">
                    <mxGeometry x="390" y="790" width="60" height="30" as="geometry"/>
                </mxCell>
            </root>
        </mxGraphModel>
    </diagram>
</mxfile>